<svg width="2000" height="224" fill="none" xmlns="http://www.w3.org/2000/svg"><g clip-path="url(#clip0_2145_86518)"><path d="M1277.26 178.833c7.63-.843 10.46-7.243 8.53-10.557-1.68-6.566-6.27-7.66-12.54-5.628 5.42-9.988 1.19-13.544-6.73-14.648-10.46.703-13.54 9.221-7.63 15.275-8.4-5.645-18.8 5.21-8.89 12.632-5.77.52-10.4 6.321-3.67 12.643 5.8 5.189 10.81 4.021 15.64 1.343-.26 14.793-.94 28.134-1.36 38.676-.02.715.69 1.305 1.58 1.305h6.74c.9 0 1.61-.603 1.58-1.325-.64-10.792-1.41-23.51-1.78-37.097 9.58 5.377 16.38 3.863 18.61-2.285 2.18-4.747-4.24-10.63-10.08-10.334Z" fill="#275243"/><path d="M1686.26 185.833c7.63-.843 10.46-7.243 8.53-10.557-1.68-6.566-6.27-7.66-12.54-5.628 5.42-9.988 1.19-13.544-6.73-14.648-10.46.703-13.54 9.221-7.63 15.275-8.4-5.645-18.8 5.21-8.89 12.632-5.77.52-10.4 6.321-3.67 12.643 5.8 5.189 10.81 4.021 15.64 1.343-.26 14.793-.94 28.134-1.36 38.676-.02.715.69 1.305 1.58 1.305h6.74c.9 0 1.61-.603 1.58-1.325-.64-10.792-1.41-23.51-1.78-37.097 9.58 5.377 16.38 3.863 18.61-2.285 2.18-4.747-4.24-10.63-10.08-10.334Z" fill="#F7BC00"/><path d="M998.109 218.242c-2.723-3.971-5.588-7.289-8.647-9.685a4.594 4.594 0 0 1-1.219-5.703 9.976 9.976 0 0 0 .577-7.702 9.994 9.994 0 0 0-5.089-5.813l-.574-.28a11.36 11.36 0 0 0-8.532-.595l-.256.083a9.997 9.997 0 0 0-5.802 14.038l.066.13a4.645 4.645 0 0 1-1.247 5.727c-4.552 3.672-7.445 8.005-9.906 13.796-5.746 13.545 6.347 22.666 17.251 29.797-.456 8.113-1.183 15.456-2.09 21.508-.089.597.686 1.11 1.675 1.11h8.86c.98 0 1.753-.506 1.677-1.098-.855-6.633-1.416-14.387-1.762-22.684 12.554-9.677 24.479-18.824 15.018-32.629Z" fill="#A4D24F"/><path d="M969.578 171.327c-3.53-5.147-7.242-9.448-11.207-12.554a5.952 5.952 0 0 1-1.58-7.391 12.938 12.938 0 0 0 .747-9.982 12.947 12.947 0 0 0-6.595-7.535l-.745-.363a14.723 14.723 0 0 0-11.058-.772l-.332.108a12.976 12.976 0 0 0-4.783 2.813 12.946 12.946 0 0 0-4.14 10.015c.075 1.869.553 3.7 1.403 5.367l.086.169a6.024 6.024 0 0 1-1.616 7.422c-5.9 4.759-9.651 10.375-12.84 17.881-7.447 17.556 8.227 29.379 22.359 38.621-.591 10.515-1.532 20.033-2.708 27.877-.115.774.889 1.439 2.171 1.439h11.483c1.271 0 2.273-.656 2.174-1.423-1.109-8.598-1.835-18.648-2.284-29.401 16.272-12.543 31.731-24.399 19.465-42.291Z" fill="#275243"/><path d="M779.404 108.87c-.523-18.178-9.918-24.21-24.075-23.705-6.88-25.457-34.15-29.234-48.833-10.044-8.392-5.962-35.767-10.907-34.115 24.573-11.557-.723-16.381 9.451-16.37 14.833-.55 24.327 19.943 18.032 27.649 16.287 5.105 3.854 13.184 3.704 19.651 2.71 4.64 7.791 5.153 16.187 2.756 24.572a2.265 2.265 0 0 0 1.142 2.662c.312.158.656.241 1.005.242h27.119a2.239 2.239 0 0 0 2.166-1.676c.084-.318.097-.652.039-.976-1.709-9.396-.221-18.287 4.89-26.08 3.683-1.151 7.137-2.86 10.157-5.239 4.671 8.329 12.827 10.756 23.247 9.306 14.3-2.892 21.426-20.035 3.572-27.465Zm-58.827 32.716-6.017-10.131a49.935 49.935 0 0 0 14.733 2.588l-4.817 7.597a2.28 2.28 0 0 1-3.899-.054ZM1134.7 191.091c-2.02-5.336-11.58-7.025-17.1-4.139-4.4 2.303-6.23 7.506-6.6 7.302-.4-.217 3.53-5.196 3.42-10.953-.11-5.826-4.36-12.803-11.24-15.091-7.96-2.646-17.57 1.617-21.5 10.466-2.61 8.002-2.61 8.331-.97 18.772-6.58 1.887-11.19 7.073-9.04 15.803 3.79 8.683 16.95 12.478 25.53 8.41.23 1.449.53 4.295-.18 6.829-.75 2.632-1.59 8.872-1.99 11.971-.03.227-.01.458.06.677.07.219.18.421.34.592.15.172.34.309.54.402.21.093.44.14.67.138l9.62-.07a1.622 1.622 0 0 0 1.22-.565c.15-.175.26-.381.32-.602.06-.222.08-.455.04-.682-.6-3.859-1.86-12.966-1.5-19.182l2.22.11c7.7 5.06 15.73 3.657 18.07-.243 1.74-2.89.89-8.028-1.95-10.467-2.62-2.251-6.31-1.667-6.35-2.435-.05-.906 5.15-.822 9.53-3.65 4.23-2.741 8.59-8.784 6.84-13.393ZM978.568 191.658c-2.026-5.336-11.58-7.025-17.102-4.138-4.4 2.303-6.226 7.505-6.602 7.301-.395-.217 3.529-5.196 3.42-10.953-.109-5.825-4.355-12.803-11.236-15.091-7.965-2.646-17.569 1.617-21.499 10.466-2.615 8.002-2.615 8.331-.977 18.772-6.573 1.887-11.187 7.073-9.039 15.804 3.796 8.682 16.951 12.477 25.531 8.409.234 1.449.53 4.295-.183 6.83-.741 2.631-1.588 8.872-1.981 11.971a1.594 1.594 0 0 0 .39 1.269 1.617 1.617 0 0 0 1.218.54l9.62-.071a1.606 1.606 0 0 0 1.213-.565 1.592 1.592 0 0 0 .365-1.284c-.599-3.858-1.86-12.966-1.497-19.181l2.212.11c7.708 5.059 15.734 3.656 18.078-.244 1.735-2.89.881-8.028-1.954-10.467-2.62-2.25-6.309-1.666-6.352-2.434-.051-.907 5.15-.823 9.527-3.65 4.236-2.742 8.597-8.785 6.848-13.394Z" fill="#008009"/><path d="M937.475 166.206c-2.501-6.587-14.295-8.672-21.112-5.109-5.433 2.843-7.686 9.266-8.151 9.014-.487-.268 4.357-6.415 4.222-13.521-.134-7.192-5.375-15.806-13.871-18.63-9.832-3.267-21.688 1.996-26.54 12.92-3.228 9.878-3.228 10.284-1.206 23.174-8.115 2.329-13.811 8.731-11.159 19.509 4.686 10.719 20.926 15.404 31.518 10.382.289 1.789.654 5.302-.226 8.431-.915 3.249-1.96 10.953-2.445 14.778a1.97 1.97 0 0 0 1.16 2.063c.26.115.541.173.824.171l11.877-.088a1.995 1.995 0 0 0 1.498-.697 1.98 1.98 0 0 0 .45-1.585c-.74-4.763-2.297-16.006-1.849-23.68l2.731.136c9.516 6.246 19.424 4.514 22.318-.3 2.142-3.568 1.088-9.911-2.413-12.922-3.234-2.778-7.788-2.057-7.841-3.006-.063-1.118 6.358-1.015 11.762-4.505 5.229-3.385 10.613-10.845 8.453-16.535Z" fill="#008009"/><path d="M1864.95 211.004c-1.21-6.962-18.17-4.087-17.86-8.779.3-4.692 13.27-1.915 13.68-6.446.4-4.53-11.58-2.388-13.68-7.176-1.55-3.528 9.21-1.071 5.44-6.998-.72-1.132-1.45-2.255-2.42-3.183-1.23-1.186-3.31-3.158-4.97-4.613A3.231 3.231 0 0 0 1843 173c-.79 0-1.55.288-2.15.809-1.67 1.469-3.78 3.475-5.01 4.654-.95.913-1.69 2.008-2.36 3.142-3.75 6.31 7.44 3.549 6.03 6.998-1.96 4.845-14.95 3.33-13.74 7.719 1.21 4.389 12.58 1.411 12.88 6.103.31 4.692-16.39 1.617-17.6 8.579-.96 5.477 13.18 5.803 19.25 5.692-.03 2.591-.45 5.261-1.13 7.839-.05.173-.05.354-.02.53.04.175.12.34.23.482a1.174 1.174 0 0 0 .92.453h5.4a1.174 1.174 0 0 0 .93-.455 1.181 1.181 0 0 0 .21-1.009 37.722 37.722 0 0 1-1.1-7.839c6.09.108 20.16-.227 19.21-5.693Z" fill="#275243"/><path d="M1231.33 196.778c-1.8-4.743-10.3-6.245-15.22-3.679-3.91 2.047-5.54 6.671-5.87 6.49-.36-.193 3.14-4.619 3.04-9.736-.1-5.178-3.88-11.38-10-13.414-7.09-2.352-15.64 1.437-19.13 9.303-2.33 7.113-2.33 7.405-.87 16.686-5.85 1.677-9.96 6.287-8.05 14.048 3.38 7.718 15.09 11.091 22.72 7.475.21 1.288.48 3.817-.16 6.071-.66 2.339-1.41 7.886-1.76 10.64-.03.202-.01.407.05.602.06.195.16.374.3.527a1.4 1.4 0 0 0 1.08.48l8.56-.063c.21-.002.41-.048.6-.134a1.448 1.448 0 0 0 .77-.904c.05-.197.07-.403.04-.606-.54-3.43-1.66-11.525-1.34-17.05l1.97.098c6.86 4.497 14 3.25 16.09-.216 1.54-2.569.79-7.137-1.74-9.305-2.33-2-5.61-1.481-5.65-2.164-.05-.805 4.58-.731 8.48-3.244 3.77-2.437 7.65-7.809 6.09-11.905Z" fill="#008009"/><path d="M1270.96 219.161c-.33-11.628-6.34-15.486-15.4-15.163-4.4-16.284-21.84-18.699-31.23-6.424-5.37-3.814-22.88-6.977-21.83 15.717-7.39-.462-10.47 6.046-10.47 9.488-.35 15.561 12.76 11.534 17.69 10.418 3.26 2.465 8.43 2.369 12.57 1.733 2.97 4.984 3.3 10.354 1.76 15.718-.06.215-.07.442-.04.664.04.221.13.43.27.61.13.18.3.327.5.428.2.101.42.154.65.155h17.34c.21 0 .42-.046.61-.135.19-.09.36-.22.49-.382.14-.161.23-.351.29-.555.05-.204.06-.417.02-.625-1.09-6.009-.14-11.696 3.13-16.681 2.36-.736 4.57-1.829 6.5-3.351 2.98 5.327 8.2 6.879 14.87 5.953 9.14-1.851 13.7-12.816 2.28-17.568Zm-37.63 20.926-3.85-6.48a31.995 31.995 0 0 0 9.43 1.655l-3.08 4.86c-.14.213-.32.387-.54.508a1.46 1.46 0 0 1-1.43-.02c-.22-.126-.4-.306-.53-.523Z" fill="#008009"/><path d="M1482.93 201.341c-.33-11.628-6.34-15.487-15.4-15.163-4.4-16.284-21.84-18.699-31.23-6.425-5.37-3.814-22.88-6.977-21.82 15.718-7.39-.463-10.48 6.045-10.47 9.488-.35 15.56 12.75 11.534 17.68 10.417 3.27 2.466 8.44 2.37 12.57 1.734 2.97 4.983 3.3 10.354 1.76 15.717a1.49 1.49 0 0 0 .23 1.275c.13.18.31.326.51.428.19.101.41.154.64.155h17.34a1.43 1.43 0 0 0 1.1-.517c.14-.162.24-.351.29-.555.05-.204.06-.417.02-.625-1.09-6.01-.14-11.697 3.13-16.681 2.36-.736 4.57-1.83 6.5-3.352 2.99 5.328 8.2 6.88 14.87 5.953 9.15-1.85 13.7-12.815 2.28-17.567Zm-37.62 20.926-3.85-6.48a31.93 31.93 0 0 0 9.42 1.655l-3.08 4.859a1.472 1.472 0 0 1-1.26.686 1.466 1.466 0 0 1-.71-.198c-.22-.126-.4-.306-.52-.522ZM1841.2 209.382c-.18-6.492-3.55-8.647-8.62-8.466-2.46-9.092-12.23-10.44-17.49-3.587-3.01-2.129-12.81-3.896-12.22 8.776-4.14-.258-5.87 3.375-5.87 5.298-.19 8.688 7.15 6.44 9.91 5.816 1.83 1.377 4.72 1.323 7.04.968 1.66 2.783 1.84 5.781.98 8.776a.927.927 0 0 0-.02.371c.03.123.08.24.15.34.07.101.17.183.28.239.12.057.24.087.36.087h9.72a.783.783 0 0 0 .61-.288.754.754 0 0 0 .16-.31.824.824 0 0 0 .02-.349c-.61-3.356-.08-6.531 1.75-9.314 1.32-.411 2.56-1.022 3.64-1.872 1.67 2.975 4.59 3.842 8.33 3.324 5.12-1.033 7.67-7.155 1.27-9.809Zm-21.07 11.684-2.15-3.618c1.7.571 3.48.882 5.27.924l-1.72 2.714a.88.88 0 0 1-.3.283.84.84 0 0 1-.41.1.776.776 0 0 1-.39-.111.76.76 0 0 1-.3-.292Z" fill="#A4D24F"/><path d="M1654.93 201.341c-.33-11.628-6.34-15.487-15.4-15.163-4.4-16.284-21.84-18.699-31.23-6.425-5.37-3.814-22.88-6.977-21.82 15.718-7.39-.463-10.48 6.045-10.47 9.488-.35 15.56 12.75 11.534 17.68 10.417 3.27 2.466 8.44 2.37 12.57 1.734 2.97 4.983 3.3 10.354 1.76 15.717a1.49 1.49 0 0 0 .23 1.275c.13.18.31.326.51.428.19.101.41.154.64.155h17.34a1.43 1.43 0 0 0 1.1-.517c.14-.162.24-.351.29-.555.05-.204.06-.417.02-.625-1.09-6.01-.14-11.697 3.13-16.681 2.36-.736 4.57-1.83 6.5-3.352 2.99 5.328 8.2 6.88 14.87 5.953 9.15-1.85 13.7-12.815 2.28-17.567Zm-37.62 20.926-3.85-6.48a31.93 31.93 0 0 0 9.42 1.655l-3.08 4.859a1.472 1.472 0 0 1-1.26.686 1.466 1.466 0 0 1-.71-.198c-.22-.126-.4-.306-.52-.522Z" fill="#275243"/><path d="M1928.55 211.766c-.12-4.267-2.3-5.683-5.57-5.564-1.59-5.975-7.9-6.861-11.3-2.357-1.94-1.4-8.27-2.56-7.89 5.767-2.67-.17-3.79 2.218-3.79 3.481-.12 5.71 4.62 4.232 6.4 3.823 1.18.904 3.05.869 4.54.636 1.08 1.828 1.2 3.799.64 5.767a.587.587 0 0 0 .08.467c.05.066.11.12.19.157.07.037.15.057.23.057h6.27a.51.51 0 0 0 .5-.393.445.445 0 0 0 .01-.229c-.39-2.206-.05-4.292 1.13-6.121.86-.27 1.66-.671 2.35-1.23 1.08 1.955 2.97 2.524 5.38 2.184 3.31-.679 4.96-4.702.83-6.445Zm-13.61 7.678-1.39-2.378c1.1.375 2.25.58 3.41.607l-1.12 1.783a.532.532 0 0 1-.19.187.528.528 0 0 1-.71-.199Z" fill="#F7BC00"/><path d="M1327.93 197.341c-.33-11.628-6.34-15.487-15.4-15.163-4.4-16.284-21.84-18.699-31.23-6.425-5.37-3.814-22.88-6.977-21.82 15.718-7.39-.463-10.48 6.045-10.47 9.488-.35 15.56 12.75 11.534 17.68 10.417 3.27 2.466 8.44 2.37 12.57 1.734 2.97 4.983 3.3 10.354 1.76 15.717a1.49 1.49 0 0 0 .23 1.275c.13.18.31.326.51.428.19.101.41.154.64.155h17.34a1.43 1.43 0 0 0 1.1-.517c.14-.162.24-.351.29-.555.05-.204.06-.417.02-.625-1.09-6.01-.14-11.697 3.13-16.681 2.36-.736 4.57-1.83 6.5-3.352 2.99 5.328 8.2 6.88 14.87 5.953 9.15-1.85 13.7-12.815 2.28-17.567Zm-37.62 20.926-3.85-6.48a31.93 31.93 0 0 0 9.42 1.655l-3.08 4.859a1.472 1.472 0 0 1-1.26.686 1.466 1.466 0 0 1-.71-.198c-.22-.126-.4-.306-.52-.522ZM883.851 211.267c-.55-19.128-10.436-25.476-25.334-24.944-7.239-26.787-35.933-30.761-51.383-10.568-8.831-6.274-37.635-11.478-35.898 25.856-12.16-.761-17.236 9.945-17.225 15.608-.578 25.598 20.986 18.974 29.094 17.137 5.371 4.056 13.873 3.898 20.677 2.852 4.883 8.198 5.422 17.033 2.9 25.856a2.4 2.4 0 0 0 .37 2.096 2.355 2.355 0 0 0 1.889.959h28.536c.345.001.686-.075.999-.222a2.366 2.366 0 0 0 1.321-2.569c-1.798-9.886-.232-19.241 5.146-27.441 3.876-1.211 7.509-3.01 10.687-5.514 4.916 8.765 13.497 11.318 24.462 9.793 15.047-3.043 22.545-21.082 3.759-28.899Zm-61.901 34.424-6.331-10.66a52.52 52.52 0 0 0 15.502 2.723l-5.068 7.994a2.398 2.398 0 0 1-4.103-.057Z" fill="#008009"/><path d="M1002.76 207.095c9.69-1.066 13.29-9.166 10.84-13.361-2.13-8.31-7.97-9.695-15.945-7.123 6.905-12.64 1.513-17.141-8.556-18.539-13.295.89-17.211 11.671-9.699 19.333-10.673-7.145-23.901 6.594-11.302 15.987-7.338.658-13.222 8.001-4.665 16.001 7.371 6.568 13.748 5.09 19.889 1.701-.341 18.722-1.204 35.606-1.728 48.949-.037.905.868 1.651 1.997 1.651h8.581c1.141 0 2.043-.763 1.998-1.677-.814-13.659-1.793-29.755-2.255-46.95 12.175 6.805 20.825 4.889 23.655-2.893 2.78-6.007-5.39-13.453-12.81-13.079Z" fill="#275243"/><path d="M858.337 164.059c-2.327-3.246-8.181-2.946-9.88.63l-.042.088c-1.353-25.678-6.022-45.394-19.888-48.587-3.875-.892-7.835 1.47-8.369 4.864-2.724 17.274-12.867 32.943-11.838 43.85-1.356-3.43-4.563-6.475-7.777-4.297a4.495 4.495 0 0 0-1.732 2.361c-7.775 24.192.653 39.113 24.355 40.049-1.317 14.334-1.86 27.324-1.207 37.73.095 1.489 1.108 2.753 2.597 2.753h11.125c1.534 0 2.871-1.33 2.588-2.83-2.062-11.011-3.598-24.118-2.939-38.317 21.892-3.35 37.587-17.992 23.007-38.294Z" fill="#F7BC00"/><path d="M1092.41 176.552c-.96-1.907-5.26-10.647-14.05-12.927-4.2-1.088-9.79-.8-13.62.5-.82.295-1.65.545-2.5.749-2.43.574-6.92 3.721-10.36 6.099a11.585 11.585 0 0 1-8.41 1.928c-23.11-3.729-30.75 11.577-29.03 20.698 4.76 18.103 32.52 15.825 33.98 15.455-1.17 4.556-2.72 18.106-3.01 22.965-.02.225.01.451.09.663.08.212.2.406.35.571a1.668 1.668 0 0 0 1.2.524h10.74c.22 0 .45-.046.66-.136.21-.091.39-.223.55-.388.15-.166.27-.362.35-.576.08-.213.11-.441.09-.667-.23-3.524-1.02-11.447-.77-15.715.19-3.249.31-5.527.41-7.125 3.53.743 13.91-.532 18.71-2.089.58-.19 15.06-4.154 16.31-17.047.76-8.099-.63-11.344-1.69-13.482Z" fill="#275243"/><path d="M1483.93 197.679c-.54-1.077-2.96-6.013-7.9-7.301-2.36-.614-5.49-.451-7.64.283-.46.167-.93.308-1.41.423-1.36.324-3.89 2.102-5.82 3.444a6.48 6.48 0 0 1-4.72 1.09c-12.98-2.106-17.28 6.538-16.31 11.69 2.68 10.224 18.27 8.937 19.09 8.728-.66 2.574-1.53 10.227-1.69 12.971-.01.127.01.255.05.374.04.12.11.23.2.323a.898.898 0 0 0 .67.296h6.03a.926.926 0 0 0 .68-.296c.09-.094.15-.204.2-.325a.964.964 0 0 0 .05-.377c-.13-1.99-.57-6.465-.44-8.876.11-1.835.18-3.122.24-4.024 1.98.42 7.81-.3 10.51-1.18.32-.107 8.46-2.346 9.16-9.628.43-4.574-.36-6.407-.95-7.615Z" fill="#008009"/><path d="M838.201 144.597c-.955-1.907-5.256-10.647-14.052-12.927-4.2-1.089-9.786-.8-13.615.5-.818.295-1.652.545-2.498.749-2.433.574-6.924 3.721-10.368 6.098a11.574 11.574 0 0 1-8.406 1.929c-23.111-3.729-30.752 11.577-29.029 20.698 4.762 18.103 32.515 15.825 33.98 15.455-1.166 4.556-2.719 18.106-3.014 22.965-.014.225.019.451.096.663a1.673 1.673 0 0 0 .897.957c.206.09.429.137.655.138h10.733a1.663 1.663 0 0 0 1.211-.524 1.66 1.66 0 0 0 .445-1.243c-.234-3.524-1.023-11.447-.775-15.715.188-3.249.314-5.527.414-7.125 3.527.743 13.909-.532 18.707-2.089.583-.19 15.064-4.154 16.307-17.048.769-8.098-.625-11.343-1.688-13.481Z" fill="#A4D24F"/><path d="M806.995 192.124c-.988-34.13-18.726-45.457-45.457-44.508-12.989-47.798-64.477-54.888-92.198-18.858-15.846-11.194-67.53-20.479-64.413 46.136-21.819-1.357-30.927 17.746-30.907 27.851-1.038 45.675 37.655 33.856 52.204 30.579 9.638 7.236 24.893 6.954 37.101 5.089 8.763 14.627 9.729 30.392 5.204 46.135a4.243 4.243 0 0 0 4.054 5.452h51.203a4.23 4.23 0 0 0 4.089-3.146 4.238 4.238 0 0 0 .073-1.834c-3.226-17.64-.417-34.334 9.234-48.965 6.954-2.161 13.474-5.37 19.176-9.838 8.82 15.639 24.218 20.195 43.893 17.474 26.999-5.431 40.452-37.618 6.744-51.567Zm-111.07 61.425-11.361-19.021a94.716 94.716 0 0 0 27.817 4.858l-9.095 14.265a4.316 4.316 0 0 1-7.361-.102Z" fill="#008009"/><path d="M806.636 125.521c-7.007-11.786-30.974 9.418-38.152 10.208 23.941-23.287 23.661-34.471 12.168-40.05-15.22-3.032-25.31 12.224-33.185 35.354.592-23.871-.859-44.773-18.017-42.918a19.801 19.801 0 0 0-11.612 5.498c-10.482 10.207-5.427 24.535 8.611 41.258-17.332-11.537-33.55-20.166-42.642-10.187-3.362 3.692-4.428 8.915-3.471 13.814 2.303 11.691 13.544 13.61 31.179 8.537-10.175 5.346-16.545 13.015-19.56 22.739-1.982 6.4 5.369 11.81 10.983 8.142 9.129-5.961 18.664-14.42 28.096-12.895 4.486 40.948-2.517 82.248-10.253 122.315-.494 2.555 1.638 4.879 4.244 4.879h36.34c2.677 0 4.806-2.439 4.217-5.042-8.754-38.632-11.865-80.877-8.71-124.17 18.79 13.079 33.979 18.584 40.373 5.597 3.505-11.786-19.727-11.419-28.205-21.565 7.729-.524 41.65 6.475 37.596-21.514Z" fill="#275243"/><path d="M1183.5 202.761c-1.4-1.954-4.92-1.773-5.95.38l-.02.053c-.82-15.459-3.63-27.328-11.97-29.251-2.34-.537-4.72.885-5.04 2.929-1.64 10.399-7.75 19.832-7.13 26.398-.82-2.065-2.75-3.898-4.68-2.587-.5.345-.87.845-1.04 1.422-4.68 14.564.39 23.546 14.66 24.109-.8 8.63-1.12 16.45-.73 22.715.06.896.67 1.657 1.56 1.657h6.7c.93 0 1.73-.801 1.56-1.704-1.24-6.629-2.17-14.519-1.77-23.067 13.18-2.017 22.63-10.832 13.85-23.054Z" fill="#F7BC00"/><path d="M932.528 185.932c-1.401-1.954-4.925-1.773-5.948.379l-.025.053c-.815-15.458-3.626-27.327-11.973-29.25-2.333-.537-4.717.885-5.039 2.928-1.639 10.4-7.746 19.833-7.126 26.399-.816-2.065-2.747-3.898-4.682-2.587a2.707 2.707 0 0 0-1.043 1.422c-4.68 14.564.393 23.546 14.662 24.109-.793 8.63-1.119 16.45-.726 22.715.057.896.666 1.657 1.563 1.657h6.698c.923 0 1.728-.801 1.558-1.704-1.242-6.629-2.166-14.519-1.77-23.067 13.18-2.017 22.628-10.832 13.851-23.054Z" fill="#A4D24F"/><path d="M214.563 69.612c-2.009-4.012-11.06-22.405-29.568-27.203-8.84-2.29-20.594-1.683-28.652 1.053a50.108 50.108 0 0 1-5.256 1.577c-5.122 1.208-14.572 7.83-21.818 12.833a24.36 24.36 0 0 1-17.69 4.058c-48.635-7.846-64.714 24.362-61.088 43.557 10.021 38.095 68.423 33.301 71.505 32.522-2.452 9.589-5.722 38.102-6.342 48.328a3.499 3.499 0 0 0 2.089 3.408c.435.189.904.289 1.379.291h22.587a3.494 3.494 0 0 0 2.549-1.103 3.489 3.489 0 0 0 .935-2.616c-.491-7.414-2.151-24.088-1.63-33.07.396-6.837.66-11.631.871-14.994 7.421 1.564 29.269-1.118 39.366-4.395 1.228-.399 31.701-8.741 34.317-35.875 1.617-17.043-1.316-23.87-3.554-28.37ZM630.813 162.6c-4.928-28.505-73.917-16.732-72.687-35.942 1.23-19.211 54.004-7.843 55.646-26.391 1.641-18.548-47.084-9.778-55.646-29.385-6.306-14.444 37.461-4.383 22.139-28.652-2.924-4.632-5.89-9.233-9.827-13.032-5.023-4.854-13.49-12.928-20.22-18.884A13.155 13.155 0 0 0 541.494 7a13.157 13.157 0 0 0-8.725 3.314c-6.808 6.013-15.396 14.226-20.402 19.054-3.867 3.738-6.86 8.222-9.597 12.862-15.244 25.838 30.255 14.531 24.551 28.652-8.007 19.838-60.83 13.638-55.901 31.607 4.928 17.969 51.15 5.777 52.402 24.988 1.251 19.21-66.694 6.618-71.635 35.123-3.876 22.426 53.619 23.759 78.326 23.306-.117 10.609-1.832 21.541-4.604 32.094a4.825 4.825 0 0 0 .846 4.145 4.756 4.756 0 0 0 3.78 1.855h21.961a4.758 4.758 0 0 0 2.097-.494 4.821 4.821 0 0 0 2.573-3.335 4.845 4.845 0 0 0-.045-2.166 157.973 157.973 0 0 1-4.478-32.095c24.785.445 82.038-.928 78.17-23.31Z" fill="#275243"/><path d="M1288.87 235.798c-2.2-12.603-33.02-7.398-32.47-15.892.55-8.494 24.13-3.467 24.86-11.668.73-8.201-21.03-4.323-24.86-12.993-2.81-6.386 16.74-1.938 9.89-12.668-1.3-2.048-2.63-4.082-4.39-5.762-2.24-2.146-6.02-5.716-9.03-8.35a5.916 5.916 0 0 0-3.9-1.465 5.89 5.89 0 0 0-3.89 1.465c-3.04 2.659-6.88 6.29-9.12 8.425-1.72 1.653-3.06 3.635-4.28 5.687-6.81 11.424 13.51 6.425 10.96 12.668-3.57 8.772-27.17 6.03-24.97 13.975 2.21 7.945 22.85 2.555 23.41 11.049.56 8.493-29.79 2.926-32 15.529-1.73 9.916 23.95 10.505 34.99 10.305-.05 4.691-.82 9.524-2.06 14.19-.08.314-.09.642-.02.96.06.318.2.616.4.873.2.256.46.463.75.605.29.143.61.216.94.215h9.81c.32-.001.64-.076.94-.218.29-.143.54-.35.74-.606.2-.255.34-.552.41-.869.06-.317.05-.644-.02-.958a69.375 69.375 0 0 1-2.01-14.19c11.08.196 36.65-.411 34.92-10.307Z" fill="#A4D24F"/><path d="M1506.95 212.589c-1.32-7.619-19.82-4.472-19.49-9.607.33-5.134 14.48-2.096 14.92-7.054.44-4.957-12.63-2.613-14.92-7.853-1.69-3.861 10.04-1.172 5.94-7.659-.79-1.238-1.58-2.467-2.64-3.483-1.35-1.297-3.62-3.455-5.42-5.047A3.544 3.544 0 0 0 1483 171c-.86 0-1.69.315-2.34.886-1.83 1.607-4.13 3.802-5.47 5.092-1.04 1-1.84 2.198-2.58 3.438-4.08 6.906 8.12 3.884 6.59 7.659-2.15 5.302-16.31 3.645-14.99 8.447 1.32 4.803 13.71 1.545 14.05 6.679.34 5.135-17.88 1.769-19.21 9.388-1.04 5.994 14.38 6.35 21 6.229-.03 2.836-.49 5.758-1.23 8.578-.05.19-.06.389-.02.581.04.192.13.372.25.527.12.155.27.28.45.366.17.086.36.131.56.13h5.89a1.28 1.28 0 0 0 1.01-.498c.12-.154.2-.334.24-.525.04-.192.04-.39-.01-.579-.7-2.811-1.1-5.685-1.2-8.579 6.64.119 22-.248 20.96-6.23Z" fill="#F7BC00"/><path d="M1354.92 205.383c-2.01-11.428-30.14-6.708-29.64-14.41s22.02-3.144 22.69-10.58c.67-7.437-19.2-3.92-22.69-11.781-2.57-5.791 15.28-1.758 9.03-11.488-1.19-1.856-2.4-3.701-4.01-5.224-2.05-1.946-5.5-5.183-8.24-7.571a5.433 5.433 0 0 0-7.12 0c-2.78 2.41-6.28 5.703-8.32 7.639-1.58 1.499-2.8 3.296-3.91 5.156-6.22 10.359 12.33 5.826 10.01 11.488-3.27 7.953-24.81 5.467-22.8 12.672 2.01 7.204 20.86 2.316 21.37 10.018.51 7.702-27.2 2.653-29.21 14.081-1.58 8.991 21.86 9.526 31.94 9.344-.05 4.254-.75 8.637-1.88 12.868-.07.284-.08.582-.02.87.06.288.18.559.37.791.18.232.41.42.68.549.27.129.56.196.86.195h8.95a2 2 0 0 0 .86-.198c.27-.129.5-.317.68-.549.18-.231.31-.501.37-.788.06-.287.05-.584-.02-.869a62.135 62.135 0 0 1-1.83-12.867c10.11.178 33.46-.372 31.88-9.346ZM1558.94 206.042c-1.54-8.801-23.12-5.166-22.74-11.097.39-5.931 16.9-2.421 17.41-8.148.51-5.727-14.73-3.019-17.41-9.073-1.97-4.46 11.72-1.353 6.93-8.847-.92-1.43-1.85-2.85-3.08-4.023-1.57-1.499-4.22-3.992-6.32-5.831A4.171 4.171 0 0 0 1531 158c-1.01 0-1.98.364-2.73 1.023-2.13 1.857-4.82 4.393-6.38 5.883-1.21 1.154-2.15 2.539-3.01 3.971-4.77 7.978 9.47 4.487 7.68 8.847-2.5 6.125-19.03 4.211-17.48 9.759 1.54 5.548 16 1.784 16.39 7.715.39 5.931-20.87 2.043-22.41 10.844-1.21 6.924 16.77 7.336 24.5 7.196-.03 3.276-.57 6.651-1.44 9.91a1.68 1.68 0 0 0-.02.67 1.54 1.54 0 0 0 .81 1.032c.21.099.43.151.66.15h6.87c.23-.001.45-.053.66-.152.2-.1.38-.245.52-.423a1.518 1.518 0 0 0 .27-1.276 48.05 48.05 0 0 1-1.4-9.909c7.75.137 25.66-.287 24.45-7.198Z" fill="#A4D24F"/><path d="M1679.96 213.569c-1.19-6.699-17.76-3.932-17.47-8.447.3-4.515 12.98-1.843 13.37-6.202.4-4.359-11.31-2.298-13.37-6.906-1.51-3.395 9-1.03 5.32-6.734-.7-1.089-1.41-2.17-2.36-3.063-1.21-1.141-3.24-3.038-4.86-4.438a3.17 3.17 0 0 0-2.09-.779c-.77 0-1.52.277-2.1.779-1.63 1.413-3.7 3.343-4.9 4.478-.93.879-1.65 1.932-2.3 3.023-3.67 6.072 7.26 3.415 5.89 6.734-1.92 4.662-14.61 3.205-13.42 7.428 1.18 4.223 12.28 1.358 12.58 5.873.3 4.515-16.02 1.555-17.21 8.254-.93 5.271 12.89 5.584 18.82 5.478-.03 2.493-.44 5.063-1.11 7.543-.04.167-.04.341-.01.51a1.15 1.15 0 0 0 1.13.9h5.27c.18-.001.35-.04.51-.116.15-.076.29-.186.4-.322.1-.136.18-.294.21-.462a.977.977 0 0 0-.01-.509 36.263 36.263 0 0 1-1.07-7.543c5.95.104 19.7-.218 18.78-5.479Z" fill="#008009"/><path d="M1941.97 216.794c-.66-3.809-9.91-2.236-9.74-4.803.16-2.567 7.24-1.048 7.46-3.527.22-2.479-6.31-1.306-7.46-3.927-.85-1.93 5.02-.586 2.97-3.829-.39-.619-.79-1.234-1.32-1.741a92.68 92.68 0 0 0-2.71-2.524A1.76 1.76 0 0 0 1930 196c-.43 0-.85.157-1.17.443-.91.803-2.06 1.901-2.74 2.546-.51.5-.92 1.099-1.28 1.719-2.05 3.453 4.05 1.942 3.29 3.829-1.07 2.651-8.16 1.823-7.5 4.224.66 2.402 6.86.772 7.03 3.34.17 2.567-8.94.884-9.6 4.693-.52 2.997 7.18 3.176 10.5 3.115-.02 1.418-.25 2.879-.62 4.289a.709.709 0 0 0-.01.29c.02.096.06.187.12.264.06.077.14.14.23.183.09.043.18.065.28.065h2.94c.1 0 .2-.023.29-.066a.637.637 0 0 0 .33-.735 22.146 22.146 0 0 1-.6-4.289c3.33.059 11-.124 10.48-3.116Z" fill="#A4D24F"/><path d="M1350.56 203.699c-1.03-1.465-3.62-1.33-4.37.285l-.02.039c-.6-11.594-2.66-20.496-8.79-21.937-1.71-.403-3.46.663-3.7 2.196-1.2 7.799-5.69 14.874-5.23 19.799-.6-1.549-2.02-2.924-3.44-1.941-.37.259-.64.635-.77 1.067-3.43 10.923.29 17.659 10.77 18.082-.58 6.472-.82 12.337-.53 17.036.04.672.49 1.243 1.14 1.243h4.92c.68 0 1.27-.601 1.15-1.278-.91-4.972-1.59-10.89-1.3-17.301 9.68-1.512 16.62-8.123 10.17-17.29ZM1600.84 194.516c-1.31-1.858-4.58-1.687-5.53.361l-.02.05c-.76-14.702-3.36-25.99-11.11-27.818-2.17-.511-4.38.841-4.68 2.785-1.52 9.89-7.19 18.861-6.62 25.106-.75-1.964-2.55-3.707-4.34-2.461-.46.329-.8.805-.97 1.353-4.34 13.851.37 22.393 13.61 22.929-.74 8.207-1.04 15.645-.67 21.603.05.853.62 1.576 1.45 1.576h6.21c.86 0 1.61-.761 1.45-1.62-1.15-6.305-2.01-13.809-1.64-21.938 12.23-1.919 21-10.302 12.86-21.926ZM1065.56 225a.942.942 0 0 1-.74-.352c-.08-.11-.15-.238-.18-.375a.964.964 0 0 1 .01-.414c.5-1.993 1.61-6.075.07-8.018-1.26-1.597-3.07-.508-5.75-2.049-3.13-1.806-4.16-5.466-4.58-6.975-2.36-8.451 6.37-24.508 15.15-22.672 4.98 1.04 13.94 8.813 12.25 22.343-.12 1.001-2.04 6.659-6.46 8.148-2.4.805-3.78-.166-4.92 1.054-1.62 1.729-.19 6.068.36 8.151.03.136.04.278.01.416a.906.906 0 0 1-.18.378c-.09.111-.2.201-.32.263a.954.954 0 0 1-.41.095l-4.31.007ZM1405.69 234.964c-.22.001-.43-.048-.62-.143a1.35 1.35 0 0 1-.5-.406 1.424 1.424 0 0 1-.28-.585c-.04-.213-.04-.434.01-.646.76-3.11 2.46-9.477.11-12.508-1.93-2.492-4.7-.794-8.8-3.198-4.8-2.818-6.37-8.526-7.01-10.882-3.61-13.184 9.74-38.235 23.19-35.37 7.62 1.623 21.33 13.749 18.75 34.858-.2 1.561-3.13 10.388-9.9 12.711-3.66 1.256-5.77-.259-7.52 1.645-2.48 2.698-.3 9.467.54 12.715.06.212.06.434.02.649-.05.215-.14.417-.27.59-.13.174-.3.314-.5.411-.2.097-.41.147-.63.148l-6.59.011Z" fill="#F7BC00"/><path d="M1688.38 228a.932.932 0 0 1-.43-.101.938.938 0 0 1-.35-.285.92.92 0 0 1-.19-.412.999.999 0 0 1 0-.455c.53-2.187 1.73-6.667.08-8.799-1.35-1.753-3.29-.558-6.16-2.249-3.36-1.983-4.46-5.999-4.91-7.656-2.53-9.275 6.82-26.899 16.23-24.884 5.34 1.142 14.94 9.673 13.13 24.523-.14 1.099-2.19 7.308-6.93 8.942-2.56.884-4.04-.181-5.27 1.158-1.73 1.898-.2 6.66.38 8.946.04.149.05.305.01.456-.03.151-.09.293-.18.415-.1.122-.22.221-.35.289-.14.068-.29.104-.44.104l-4.62.008Z" fill="#A4D24F"/><path d="M1952.67 227a.68.68 0 0 1-.55-.275.775.775 0 0 1-.14-.292.71.71 0 0 1 .01-.324c.37-1.555 1.2-4.741.05-6.257-.94-1.247-2.3-.397-4.31-1.6-2.35-1.41-3.12-4.266-3.44-5.444-1.77-6.595 4.78-19.128 11.37-17.695 3.73.812 10.45 6.878 9.18 17.439-.09.781-1.53 5.197-4.84 6.359-1.8.628-2.84-.13-3.69.823-1.22 1.349-.15 4.736.26 6.361.03.106.03.217.01.325a.654.654 0 0 1-.13.295.685.685 0 0 1-.55.279l-3.23.006Z" fill="#F7BC00"/><path d="M1143.76 190.273c9.04-.991 12.39-8.521 10.11-12.42-1.99-7.724-7.44-9.011-14.88-6.62 6.44-11.75 1.41-15.934-7.98-17.233-12.4.827-16.05 10.848-9.05 17.97-9.95-6.641-22.29 6.129-10.54 14.86-6.85.612-12.33 7.437-4.35 14.874 6.87 6.105 12.82 4.731 18.55 1.581-.32 17.402-1.12 33.097-1.61 45.499-.03.841.81 1.535 1.86 1.535h8.01c1.06 0 1.9-.71 1.86-1.559-.76-12.696-1.67-27.658-2.1-43.642 11.35 6.326 19.42 4.545 22.07-2.688 2.59-5.584-5.03-12.505-11.95-12.157ZM1366.64 182.273c9.04-.991 12.4-8.521 10.11-12.42-1.98-7.724-7.44-9.011-14.87-6.62 6.43-11.75 1.41-15.934-7.99-17.233-12.4.827-16.05 10.848-9.04 17.97-9.96-6.641-22.3 6.129-10.55 14.86-6.84.612-12.33 7.437-4.35 14.874 6.88 6.105 12.83 4.731 18.55 1.581-.31 17.402-1.12 33.097-1.61 45.499-.03.841.81 1.535 1.87 1.535h8c1.07 0 1.91-.71 1.86-1.559-.76-12.696-1.67-27.658-2.1-43.642 11.36 6.326 19.43 4.545 22.07-2.688 2.59-5.584-5.03-12.505-11.95-12.157ZM1510.72 211.712c5.28-.566 7.24-4.865 5.9-7.092-1.15-4.41-4.34-5.145-8.68-3.78 3.76-6.709.83-9.098-4.66-9.84-7.24.472-9.37 6.195-5.28 10.261-5.81-3.792-13.01 3.5-6.15 8.486-4 .349-7.2 4.246-2.54 8.493 4.01 3.486 7.48 2.701 10.83.902-.19 9.938-.66 18.9-.94 25.982-.02.48.47.876 1.08.876h4.68c.62 0 1.11-.405 1.08-.89-.44-7.25-.97-15.793-1.22-24.92 6.62 3.612 11.33 2.595 12.88-1.536 1.51-3.188-2.94-7.14-6.98-6.942Z" fill="#275243"/><path d="M1868.13 200.57c4.26-.453 5.84-3.892 4.76-5.674-.93-3.528-3.5-4.116-7-3.024 3.03-5.367.66-7.279-3.76-7.872-5.84.378-7.56 4.956-4.26 8.209-4.69-3.034-10.49 2.8-4.96 6.788-3.22.28-5.81 3.398-2.05 6.795 3.24 2.789 6.04 2.161 8.73.722-.15 7.95-.52 15.119-.76 20.785-.01.384.39.701.88.701h3.77c.5 0 .9-.324.88-.712-.36-5.8-.79-12.635-.99-19.936 5.34 2.889 9.14 2.076 10.39-1.228 1.22-2.551-2.37-5.713-5.63-5.554Z" fill="#F7BC00"/><path d="M1945.31 206.181c3.4-.361 4.66-3.096 3.8-4.513-.74-2.807-2.8-3.275-5.6-2.406 2.42-4.27.53-5.79-3.01-6.262-4.67.3-6.04 3.942-3.4 6.53-3.75-2.413-8.4 2.227-3.97 5.4-2.58.222-4.65 2.702-1.64 5.405 2.59 2.218 4.83 1.719 6.99.574-.12 6.324-.43 12.027-.61 16.533-.01.306.3.558.7.558h3.01c.41 0 .72-.258.71-.566-.29-4.614-.63-10.051-.8-15.859 4.28 2.299 7.32 1.652 8.31-.977.98-2.029-1.89-4.544-4.49-4.417Z" fill="#275243"/><path d="M422.926 73.221c-4.258-6.208-8.736-11.396-13.519-15.142a7.177 7.177 0 0 1-1.905-8.915 15.623 15.623 0 0 0 .902-12.041 15.63 15.63 0 0 0-7.956-9.089l-.898-.438a17.765 17.765 0 0 0-13.339-.93l-.4.13a15.642 15.642 0 0 0-9.591 8.887 15.627 15.627 0 0 0 .52 13.06l.104.203a7.262 7.262 0 0 1-1.949 8.954c-7.116 5.74-11.641 12.514-15.487 21.567-8.984 21.176 9.922 35.437 26.969 46.585-.713 12.683-1.848 24.164-3.267 33.625-.138.933 1.073 1.736 2.619 1.736h13.851c1.533 0 2.741-.792 2.622-1.717-1.337-10.37-2.214-22.492-2.755-35.464 19.627-15.128 38.274-29.43 23.479-51.01ZM688.07 105.322c-4.749-12.477-27.155-16.427-40.103-9.677-10.32 5.385-14.601 17.55-15.484 17.073-.925-.507 8.276-12.15 8.021-25.612-.256-13.623-10.212-29.938-26.35-35.288-18.678-6.189-41.199 3.78-50.416 24.473-6.131 18.712-6.131 19.481-2.291 43.897-15.415 4.411-26.234 16.538-21.198 36.954 8.903 20.304 39.751 29.177 59.873 19.665.549 3.389 1.242 10.043-.43 15.97-1.738 6.153-3.724 20.746-4.645 27.992a3.72 3.72 0 0 0 .916 2.968 3.77 3.77 0 0 0 2.854 1.263l22.56-.166a3.79 3.79 0 0 0 2.846-1.32 3.732 3.732 0 0 0 .855-3.003c-1.405-9.023-4.363-30.319-3.511-44.854l5.187.258c18.077 11.831 36.898 8.55 42.395-.569 4.068-6.758 2.067-18.774-4.583-24.477-6.143-5.262-14.795-3.897-14.896-5.693-.12-2.119 12.078-1.923 22.344-8.534 9.933-6.412 20.16-20.543 16.056-31.32Z" fill="#A4D24F"/><path d="M104.262 68.222c-4.915-12.906-28.1-16.991-41.5-10.01-10.68 5.57-15.11 18.153-16.023 17.66-.957-.525 8.564-12.568 8.3-26.491-.264-14.091-10.567-30.967-27.268-36.5C8.443 6.478-14.862 16.79-24.4 38.193c-6.345 19.354-6.345 20.15-2.372 45.403-15.95 4.564-27.147 17.107-21.935 38.224 9.213 21.001 41.135 30.179 61.957 20.34.57 3.505 1.286 10.388-.444 16.518-1.799 6.365-3.854 21.459-4.807 28.954a3.85 3.85 0 0 0 .947 3.07 3.906 3.906 0 0 0 2.954 1.306l23.346-.171a3.935 3.935 0 0 0 2.945-1.366 3.868 3.868 0 0 0 .885-3.106c-1.454-9.333-4.515-31.36-3.633-46.394l5.367.266c18.707 12.237 38.184 8.844 43.872-.588 4.21-6.99 2.139-19.418-4.743-25.318-6.357-5.442-15.31-4.03-15.414-5.888-.125-2.192 12.498-1.989 23.121-8.827 10.279-6.632 20.862-21.248 16.616-32.395ZM426.783 149.069c-1.02-35.298-19.351-47.012-46.976-46.03-13.423-49.432-66.632-56.764-95.28-19.502-16.375-11.578-69.787-21.18-66.566 47.713-22.548-1.403-31.961 18.352-31.94 28.803-1.073 47.237 38.913 35.014 53.949 31.625 9.959 7.483 25.724 7.192 38.341 5.262 9.055 15.128 10.054 31.431 5.378 47.713a4.39 4.39 0 0 0 4.189 5.638h52.915a4.369 4.369 0 0 0 4.301-5.15c-3.334-18.243-.431-35.508 9.543-50.639 7.186-2.235 13.924-5.554 19.817-10.174 9.115 16.173 25.027 20.885 45.36 18.071 27.901-5.617 41.805-38.904 6.969-53.33Zm-114.782 63.525-11.741-19.671a97.854 97.854 0 0 0 28.747 5.024l-9.399 14.753a4.457 4.457 0 0 1-7.607-.106Z" fill="#008009"/><path d="M466.019 69.536c-2.057-5.439-11.761-7.16-17.369-4.218-4.47 2.347-6.324 7.65-6.707 7.442-.4-.222 3.585-5.296 3.474-11.164-.11-5.939-4.423-13.05-11.412-15.383-8.089-2.697-17.844 1.648-21.836 10.668-2.655 8.157-2.655 8.492-.992 19.135-6.676 1.923-11.362 7.209-9.181 16.108 3.856 8.851 17.217 12.718 25.931 8.572.238 1.477.539 4.378-.186 6.961-.753 2.683-1.613 9.044-2.012 12.202a1.642 1.642 0 0 0 .397 1.294 1.627 1.627 0 0 0 1.236.551l9.771-.073a1.623 1.623 0 0 0 1.233-.575 1.638 1.638 0 0 0 .37-1.309c-.608-3.933-1.889-13.216-1.521-19.552l2.247.112c7.83 5.157 15.981 3.727 18.362-.248 1.762-2.945.895-8.183-1.985-10.67-2.661-2.293-6.408-1.698-6.452-2.48-.052-.925 5.231-.839 9.677-3.721 4.302-2.795 8.732-8.954 6.955-13.652Z" fill="#008009"/><path d="M992.863 163.434c-2.87-4.848-12.686 3.874-15.625 4.198 9.805-9.578 9.69-14.178 4.983-16.474-6.233-1.247-10.365 5.029-13.591 14.543.243-9.819-.351-18.417-7.378-17.654a8.09 8.09 0 0 0-4.756 2.262c-4.293 4.198-2.222 10.092 3.527 16.971-7.098-4.746-13.74-8.295-17.464-4.191-1.377 1.519-1.813 3.667-1.421 5.683.943 4.808 5.546 5.598 12.769 3.511-4.167 2.199-6.776 5.353-8.011 9.353-.812 2.633 2.199 4.858 4.498 3.349 3.739-2.452 7.644-5.931 11.507-5.304 1.837 16.843-1.031 33.831-4.2 50.312-.202 1.051.671 2.007 1.739 2.007h14.882c1.097 0 1.969-1.003 1.727-2.074-3.585-15.891-4.859-33.267-3.567-51.075 7.695 5.38 13.916 7.644 16.535 2.302 1.435-4.848-8.079-4.697-11.552-8.87 3.166-.216 17.058 2.663 15.398-8.849Z" fill="#F7BC00"/><path d="M1029.4 195.455c-2.51-4.227-11.1 3.377-13.68 3.66 8.59-8.35 8.49-12.361 4.36-14.362-5.45-1.087-9.07 4.384-11.89 12.678.21-8.56-.31-16.055-6.46-15.39a7.097 7.097 0 0 0-4.165 1.972c-3.758 3.66-1.945 8.798 3.085 14.794-6.211-4.137-12.026-7.231-15.285-3.652-1.205 1.323-1.588 3.196-1.245 4.953.826 4.192 4.856 4.88 11.179 3.061-3.648 1.917-5.932 4.667-7.013 8.154-.711 2.295 1.925 4.235 3.937 2.92 3.273-2.138 6.692-5.171 10.077-4.624 1.6 14.683-.91 29.492-3.68 43.86-.177.916.588 1.75 1.52 1.75h13.03c.96 0 1.72-.875 1.51-1.808-3.14-13.853-4.25-29.002-3.12-44.526 6.74 4.69 12.18 6.664 14.47 2.007 1.26-4.226-7.07-4.095-10.11-7.733 2.77-.188 14.93 2.322 13.48-7.714Z" fill="#A4D24F"/><path d="M1046.3 211.425c-1.32-3.479-7.53-4.58-11.11-2.698-2.86 1.501-4.05 4.893-4.29 4.76-.26-.141 2.29-3.388 2.22-7.141-.07-3.798-2.83-8.347-7.3-9.839-5.17-1.726-11.41 1.054-13.97 6.823-1.7 5.218-1.7 5.432-.63 12.24-4.27 1.23-7.27 4.611-5.87 10.303 2.46 5.661 11.01 8.135 16.58 5.483.16.945.35 2.8-.12 4.453-.48 1.716-1.03 5.784-1.28 7.805-.02.148-.01.298.03.441.05.143.12.275.22.386.1.112.22.201.36.262a.99.99 0 0 0 .43.09l6.25-.046c.15-.001.3-.034.44-.098.13-.063.25-.156.35-.27.1-.114.17-.248.21-.393.04-.144.05-.296.03-.444-.39-2.516-1.21-8.454-.98-12.506l1.44.072c5.01 3.298 10.22 2.383 11.75-.159 1.12-1.884.57-5.235-1.27-6.825-1.71-1.467-4.1-1.086-4.13-1.587-.03-.591 3.35-.536 6.19-2.38 2.75-1.787 5.58-5.727 4.45-8.732Z" fill="#A4D24F"/><path d="M353.259 37.521c-7.007-11.786-30.974 9.419-38.152 10.208 23.941-23.287 23.662-34.47 12.168-40.05-15.22-3.032-25.31 12.225-33.185 35.354.592-23.871-.859-44.773-18.017-42.918a19.801 19.801 0 0 0-11.612 5.498c-10.482 10.207-5.427 24.535 8.611 41.258-17.332-11.537-33.55-20.166-42.642-10.187-3.362 3.692-4.428 8.915-3.471 13.815 2.303 11.69 13.544 13.61 31.179 8.536-10.175 5.346-16.545 13.015-19.56 22.739-1.982 6.4 5.369 11.81 10.983 8.142 9.129-5.961 18.664-14.42 28.096-12.895 4.486 40.948-2.517 82.248-10.253 122.315-.494 2.555 1.638 4.879 4.244 4.879h36.34c2.677 0 4.806-2.439 4.217-5.042-8.754-38.632-11.864-80.877-8.71-124.17 18.79 13.08 33.979 18.584 40.373 5.597 3.505-11.786-19.727-11.419-28.205-21.565 7.729-.524 41.65 6.475 37.596-21.514Z" fill="#275243"/><path d="M707.256 146.586c-3.184-4.429-11.189-4.02-13.513.86l-.057.12c-1.851-35.043-8.237-61.95-27.2-66.307-5.3-1.218-10.716 2.006-11.447 6.638-3.724 23.574-17.597 44.958-16.189 59.842-1.855-4.681-6.242-8.836-10.636-5.864a6.137 6.137 0 0 0-2.37 3.223c-10.632 33.015.893 53.377 33.31 54.654-1.802 19.562-2.544 37.29-1.651 51.491.129 2.033 1.514 3.757 3.551 3.757h15.216c2.097 0 3.925-1.815 3.539-3.862-2.82-15.027-4.92-32.913-4.019-52.291 29.94-4.572 51.406-24.555 31.466-52.261Z" fill="#F7BC00"/><path d="M525.419 102.872c-2.01-4.013-11.061-22.405-29.569-27.203-8.84-2.29-20.594-1.683-28.652 1.053a50.06 50.06 0 0 1-5.256 1.577c-5.121 1.208-14.572 7.83-21.818 12.832a24.357 24.357 0 0 1-17.69 4.06c-48.634-7.848-64.714 24.361-61.088 43.556 10.022 38.095 68.424 33.3 71.506 32.522-2.452 9.589-5.722 38.102-6.343 48.328a3.5 3.5 0 0 0 .939 2.595 3.493 3.493 0 0 0 2.529 1.104h22.587a3.49 3.49 0 0 0 3.485-3.719c-.492-7.415-2.152-24.088-1.63-33.07.396-6.837.66-11.632.871-14.994 7.421 1.564 29.268-1.119 39.366-4.395 1.227-.4 31.7-8.741 34.317-35.875 1.617-17.043-1.317-23.87-3.554-28.371ZM138.563 172.612c-2.009-4.012-11.06-22.405-29.568-27.203-8.84-2.29-20.594-1.683-28.652 1.053a50.113 50.113 0 0 1-5.257 1.577c-5.12 1.208-14.571 7.83-21.817 12.833a24.356 24.356 0 0 1-17.69 4.058c-48.635-7.846-64.715 24.362-61.088 43.557 10.021 38.095 68.423 33.301 71.505 32.522-2.452 9.589-5.722 38.102-6.342 48.328a3.486 3.486 0 0 0 .938 2.596 3.498 3.498 0 0 0 2.53 1.103h22.587a3.494 3.494 0 0 0 2.55-1.103 3.49 3.49 0 0 0 .934-2.616c-.492-7.414-2.151-24.088-1.63-33.07.396-6.837.66-11.631.871-14.994 7.421 1.564 29.269-1.118 39.366-4.395 1.228-.399 31.701-8.741 34.317-35.875 1.617-17.043-1.316-23.87-3.554-28.371Z" fill="#275243"/><path d="M176.164 148.034c-.869-30.132-16.488-40.132-40.027-39.293C124.7 66.543 79.362 60.283 54.952 92.092 40.999 82.21-4.512 74.012-1.767 132.823-20.98 131.625-29 148.49-28.982 157.411c-.914 40.324 33.157 29.89 45.968 26.997 8.486 6.388 21.92 6.139 32.67 4.492 7.715 12.914 8.567 26.832 4.582 40.731a3.756 3.756 0 0 0 .584 3.302 3.737 3.737 0 0 0 2.985 1.511h45.087a3.708 3.708 0 0 0 2.859-1.339c.35-.419.603-.91.742-1.439.14-.528.162-1.081.064-1.619-2.84-15.573-.367-30.311 8.131-43.228 6.124-1.908 11.865-4.741 16.886-8.686 7.767 13.807 21.325 17.829 38.65 15.427 23.774-4.795 35.621-33.21 5.938-45.526Zm-97.802 54.229-10.004-16.792a83.247 83.247 0 0 0 24.494 4.289l-8.008 12.593a3.801 3.801 0 0 1-3.267 1.777 3.79 3.79 0 0 1-3.215-1.867Z" fill="#008009"/><path d="M324.851 216.159c-6.418-36.85-96.255-21.63-94.654-46.465 1.602-24.836 70.325-10.139 72.463-34.119 2.137-23.979-61.313-12.64-72.463-37.988-8.211-18.673 48.782-5.666 28.829-37.042-3.806-5.987-7.669-11.936-12.796-16.848-6.541-6.275-17.567-16.712-26.331-24.413a17.201 17.201 0 0 0-22.721 0c-8.866 7.774-20.049 18.392-26.568 24.633-5.036 4.833-8.933 10.63-12.497 16.628-19.851 33.403 39.398 18.786 31.97 37.042-10.427 25.647-79.213 17.631-72.795 40.861 6.418 23.23 66.609 7.469 68.239 32.305 1.629 24.835-86.85 8.556-93.284 45.406-5.047 28.993 69.823 30.716 101.997 30.131-.153 13.716-2.386 27.849-5.995 41.491a6.19 6.19 0 0 0 3.283 7.129c.853.416 1.79.631 2.74.628h28.598a6.238 6.238 0 0 0 4.904-2.408 6.22 6.22 0 0 0 1.119-5.343 202.749 202.749 0 0 1-5.831-41.492c32.275.575 106.829-1.2 101.793-30.136ZM1177.7 244.537c-1.56-8.969-23.43-5.265-23.04-11.31.39-6.044 17.12-2.467 17.64-8.304.52-5.836-14.92-3.076-17.64-9.246-1.99-4.545 11.88-1.379 7.02-9.015-.93-1.458-1.87-2.906-3.11-4.101-1.6-1.527-4.28-4.068-6.41-5.942a4.207 4.207 0 0 0-2.77-1.043c-1.02 0-2 .371-2.76 1.043-2.16 1.892-4.88 4.476-6.47 5.995-1.23 1.177-2.17 2.587-3.04 4.048-4.83 8.13 9.59 4.572 7.78 9.015-2.54 6.242-19.28 4.291-17.72 9.945 1.56 5.655 16.21 1.818 16.61 7.863.4 6.045-21.14 2.083-22.7 11.052-1.23 7.056 16.99 7.476 24.82 7.333-.04 3.339-.58 6.779-1.46 10.099-.06.223-.06.457-.02.683.05.226.15.439.29.621.14.182.32.33.53.431.21.101.44.154.67.153h6.96c.23-.001.46-.054.66-.155.21-.102.39-.249.53-.431s.24-.394.29-.619a1.57 1.57 0 0 0-.01-.682 48.496 48.496 0 0 1-1.42-10.098c7.85.14 26-.292 24.77-7.335Z" fill="#A4D24F"/><path d="M1054.37 210.985c-1.25-7.141-18.76-4.192-18.44-9.005.31-4.813 13.7-1.965 14.11-6.612.42-4.647-11.94-2.45-14.11-7.362-1.6-3.619 9.5-1.098 5.61-7.179-.74-1.161-1.49-2.313-2.49-3.265-1.28-1.216-3.42-3.239-5.13-4.732a3.366 3.366 0 0 0-4.43 0c-1.73 1.507-3.9 3.565-5.17 4.774-.99.937-1.74 2.06-2.44 3.223-3.87 6.474 7.68 3.641 6.23 7.179-2.03 4.97-15.43 3.417-14.18 7.919s12.97 1.447 13.29 6.26c.32 4.814-16.92 1.659-18.17 8.8-.99 5.619 13.6 5.953 19.87 5.84-.03 2.658-.47 5.397-1.17 8.041-.04.178-.05.364-.01.544.03.18.11.349.23.494.11.146.26.263.42.344.17.08.35.122.54.121h5.57c.18 0 .36-.042.53-.123a1.222 1.222 0 0 0 .65-.836 1.11 1.11 0 0 0-.01-.543 38.991 38.991 0 0 1-1.14-8.041c6.29.111 20.82-.233 19.84-5.841Z" fill="#008009"/><path d="M898.928 208.232c-1.9-10.85-28.493-6.369-28.019-13.682.474-7.313 20.817-2.985 21.45-10.046.633-7.061-18.15-3.722-21.45-11.186-2.431-5.498 14.44-1.668 8.534-10.907-1.127-1.763-2.271-3.515-3.788-4.961-1.937-1.848-5.2-4.921-7.794-7.188a5.11 5.11 0 0 0-6.726 0c-2.625 2.289-5.935 5.415-7.865 7.253-1.491 1.423-2.644 3.13-3.699 4.896-5.877 9.836 11.662 5.532 9.463 10.907-3.086 7.552-23.448 5.192-21.548 12.032 1.9 6.84 19.717 2.199 20.2 9.512.482 7.313-25.709 2.52-27.614 13.37-1.494 8.537 20.669 9.045 30.193 8.872-.045 4.039-.706 8.201-1.775 12.218-.071.27-.078.553-.021.826.056.274.175.531.347.751a1.841 1.841 0 0 0 1.457.707h8.466a1.856 1.856 0 0 0 1.451-.709 1.834 1.834 0 0 0 .332-1.574 59.422 59.422 0 0 1-1.727-12.217c9.554.169 31.624-.353 30.133-8.874Z" fill="#275243"/><path d="M353.99 324.121a4.514 4.514 0 0 1-4.398-5.598c2.395-9.776 7.792-29.798.356-39.328-6.115-7.835-14.894-2.496-27.861-10.053-15.197-8.862-20.149-26.812-22.192-34.217-11.432-41.454 30.841-120.222 73.391-111.214 24.115 5.103 67.521 43.23 59.327 109.602-.602 4.91-9.889 32.664-31.3 39.967-11.598 3.95-18.289-.813-23.829 5.174-7.833 8.481-.923 29.766 1.726 39.98a4.52 4.52 0 0 1-2.376 5.187 4.517 4.517 0 0 1-1.986.464l-20.858.036Z" fill="#F7BC00"/><path d="M1208.64 203.275c-2.51-4.226-11.1 3.377-13.67 3.66 8.58-8.35 8.48-12.36 4.36-14.361-5.46-1.087-9.07 4.383-11.9 12.677.21-8.56-.31-16.054-6.46-15.39a7.095 7.095 0 0 0-4.16 1.972c-3.76 3.66-1.95 8.798 3.09 14.795-6.22-4.138-12.03-7.232-15.29-3.653-1.21 1.324-1.59 3.196-1.25 4.953.83 4.193 4.86 4.881 11.18 3.062-3.65 1.916-5.93 4.666-7.01 8.153-.71 2.295 1.92 4.235 3.94 2.92 3.27-2.138 6.69-5.171 10.07-4.624 1.61 14.683-.9 29.493-3.68 43.86-.17.917.59 1.75 1.53 1.75h13.02c.96 0 1.73-.875 1.52-1.808-3.14-13.853-4.26-29.001-3.13-44.526 6.74 4.69 12.19 6.664 14.48 2.007 1.25-4.226-7.07-4.094-10.11-7.732 2.77-.188 14.93 2.321 13.47-7.715ZM1575.4 187.455c-2.51-4.227-11.1 3.377-13.68 3.66 8.59-8.35 8.49-12.361 4.36-14.362-5.45-1.087-9.07 4.384-11.89 12.678.21-8.56-.31-16.055-6.46-15.39-1.57.176-3.04.87-4.16 1.972-3.76 3.66-1.95 8.798 3.08 14.794-6.21-4.137-12.03-7.231-15.29-3.652-1.2 1.323-1.58 3.196-1.24 4.953.83 4.192 4.86 4.88 11.18 3.061-3.65 1.917-5.93 4.667-7.01 8.154-.71 2.295 1.92 4.235 3.93 2.92 3.28-2.138 6.69-5.171 10.08-4.624 1.6 14.683-.91 29.492-3.68 43.86-.18.916.59 1.75 1.52 1.75h13.03c.96 0 1.72-.875 1.51-1.808-3.14-13.853-4.25-29.002-3.12-44.526 6.74 4.69 12.18 6.664 14.47 2.007 1.26-4.226-7.07-4.095-10.11-7.733 2.77-.188 14.93 2.322 13.48-7.714ZM1784.4 175.455c-2.51-4.227-11.1 3.377-13.68 3.66 8.59-8.35 8.49-12.361 4.36-14.362-5.45-1.087-9.07 4.384-11.89 12.678.21-8.56-.31-16.055-6.46-15.39-1.57.176-3.04.87-4.16 1.972-3.76 3.66-1.95 8.798 3.08 14.794-6.21-4.137-12.03-7.231-15.29-3.652-1.2 1.323-1.58 3.196-1.24 4.953.83 4.192 4.86 4.88 11.18 3.061-3.65 1.917-5.93 4.667-7.01 8.154-.71 2.295 1.92 4.235 3.93 2.92 3.28-2.138 6.69-5.171 10.08-4.624 1.6 14.683-.91 29.492-3.68 43.86-.18.916.59 1.75 1.52 1.75h13.03c.96 0 1.72-.875 1.51-1.808-3.14-13.853-4.25-29.002-3.12-44.526 6.74 4.69 12.18 6.664 14.47 2.007 1.26-4.226-7.07-4.095-10.11-7.733 2.77-.188 14.93 2.322 13.48-7.714ZM1918.93 190.084c-1.49-2.539-6.59 2.03-8.11 2.2 5.09-5.018 5.03-7.427 2.58-8.63-3.23-.653-5.38 2.634-7.05 7.618.12-5.143-.19-9.647-3.83-9.247-.94.106-1.8.523-2.47 1.184-2.23 2.2-1.16 5.287 1.83 8.89-3.69-2.486-7.14-4.345-9.07-2.195-.72.795-.94 1.921-.74 2.976.49 2.519 2.88 2.933 6.63 1.84-2.16 1.151-3.52 2.804-4.16 4.899-.42 1.379 1.14 2.544 2.34 1.754 1.94-1.284 3.97-3.107 5.97-2.778.96 8.823-.53 17.721-2.18 26.354-.1.55.35 1.051.9 1.051h7.73c.57 0 1.02-.526.9-1.086-1.86-8.324-2.52-17.426-1.85-26.754 3.99 2.818 7.22 4.004 8.58 1.206.75-2.539-4.19-2.46-6-4.646 1.65-.113 8.86 1.395 8-4.636ZM1413.4 166.455c-2.51-4.227-11.1 3.377-13.68 3.66 8.59-8.35 8.49-12.361 4.36-14.362-5.45-1.087-9.07 4.384-11.89 12.678.21-8.56-.31-16.055-6.46-15.39-1.57.176-3.04.87-4.16 1.972-3.76 3.66-1.95 8.798 3.08 14.794-6.21-4.137-12.03-7.231-15.29-3.652-1.2 1.323-1.58 3.196-1.24 4.953.83 4.192 4.86 4.88 11.18 3.061-3.65 1.917-5.93 4.667-7.01 8.154-.71 2.295 1.92 4.235 3.93 2.92 3.28-2.138 6.69-5.171 10.08-4.624 1.6 14.683-.91 29.492-3.68 43.86-.18.916.59 1.75 1.52 1.75h13.03c.96 0 1.72-.875 1.51-1.808-3.14-13.853-4.25-29.002-3.12-44.526 6.74 4.69 12.18 6.664 14.47 2.007 1.26-4.226-7.07-4.095-10.11-7.733 2.77-.188 14.93 2.322 13.48-7.714Z" fill="#275243"/><path d="M1807.81 204.748c-.95-2.424-5.43-3.191-8.02-1.88-2.06 1.046-2.92 3.41-3.09 3.317-.19-.098 1.65-2.36 1.6-4.976-.05-2.647-2.04-5.816-5.27-6.856-3.73-1.202-8.24.735-10.08 4.755-1.23 3.635-1.23 3.785-.46 8.528-3.08.858-5.25 3.214-4.24 7.18 1.78 3.945 7.95 5.669 11.97 3.821.11.658.25 1.951-.08 3.102-.35 1.196-.75 4.031-.93 5.439a.647.647 0 0 0 .03.308.709.709 0 0 0 .41.451.8.8 0 0 0 .31.063l4.52-.032a.79.79 0 0 0 .31-.069c.1-.044.18-.108.25-.188a.748.748 0 0 0 .16-.273.81.81 0 0 0 .02-.31c-.29-1.753-.88-5.891-.71-8.715l1.04.05c3.62 2.299 7.38 1.662 8.48-.11.81-1.313.41-3.647-.92-4.756-1.23-1.022-2.96-.757-2.98-1.106-.02-.411 2.42-.373 4.47-1.658 1.99-1.245 4.03-3.991 3.21-6.085ZM1979.86 210.903c-.69-1.782-3.98-2.347-5.88-1.382-1.51.769-2.14 2.507-2.27 2.439-.13-.073 1.21-1.736 1.18-3.659-.04-1.946-1.5-4.277-3.87-5.041-2.74-.884-6.04.54-7.39 3.496-.9 2.673-.9 2.783-.34 6.271-2.26.63-3.85 2.362-3.11 5.279 1.31 2.901 5.83 4.168 8.78 2.809.09.484.19 1.435-.06 2.282-.25.879-.54 2.963-.68 3.999-.01.075 0 .153.02.226.02.073.06.14.11.198.06.057.12.103.19.134a.59.59 0 0 0 .23.046l3.31-.024a.567.567 0 0 0 .42-.188.532.532 0 0 0 .11-.202.437.437 0 0 0 .01-.227c-.2-1.289-.64-4.332-.51-6.408l.76.037c2.65 1.69 5.41 1.221 6.22-.081.6-.966.3-2.682-.67-3.497-.9-.752-2.17-.557-2.19-.813-.02-.303 1.77-.275 3.28-1.22 1.46-.916 2.96-2.934 2.35-4.474ZM608.164 199.034c-.869-30.132-16.488-40.132-40.027-39.293-11.437-42.198-56.775-48.458-81.185-16.649-13.953-9.883-59.464-18.08-56.719 40.731-19.213-1.198-27.233 15.667-27.215 24.588-.914 40.324 33.157 29.89 45.968 26.997 8.486 6.388 21.919 6.139 32.67 4.492 7.715 12.914 8.567 26.832 4.582 40.731a3.75 3.75 0 0 0 3.569 4.813h45.087a3.708 3.708 0 0 0 2.859-1.339c.35-.419.603-.91.742-1.439.14-.528.162-1.081.064-1.619-2.84-15.573-.367-30.311 8.131-43.228 6.124-1.908 11.865-4.741 16.886-8.686 7.767 13.807 21.325 17.829 38.65 15.427 23.774-4.795 35.621-33.21 5.938-45.526Zm-97.802 54.229-10.004-16.792a83.243 83.243 0 0 0 24.494 4.289l-8.009 12.593a3.797 3.797 0 0 1-5.117 1.265 3.793 3.793 0 0 1-1.364-1.355ZM1586.78 203.645c-1.11-2.852-6.33-3.755-9.35-2.212-2.41 1.231-3.41 4.012-3.62 3.903-.21-.116 1.93-2.778 1.87-5.855-.06-3.113-2.38-6.843-6.14-8.066-4.36-1.414-9.62.865-11.77 5.594-1.43 4.277-1.43 4.453-.53 10.034-3.6 1.008-6.12 3.78-4.95 8.447 2.08 4.64 9.28 6.669 13.97 4.495.13.774.29 2.295-.1 3.65-.4 1.406-.87 4.742-1.08 6.398a.743.743 0 0 0 .03.362c.04.117.1.225.18.316a.89.89 0 0 0 .67.289l5.26-.038a.929.929 0 0 0 .37-.08c.11-.052.21-.128.3-.222a.795.795 0 0 0 .17-.322.748.748 0 0 0 .02-.364c-.32-2.062-1.01-6.93-.81-10.252l1.21.059c4.21 2.704 8.61 1.954 9.89-.131.95-1.544.48-4.291-1.07-5.594-1.43-1.203-3.45-.891-3.48-1.301-.02-.485 2.82-.44 5.22-1.951 2.31-1.466 4.7-4.696 3.74-7.159Z" fill="#008009"/><path d="M1662.74 194.174c-1.33-3.422-7.6-4.506-11.23-2.654-2.89 1.477-4.09 4.814-4.33 4.683-.26-.14 2.31-3.333 2.24-7.025-.07-3.737-2.86-8.212-7.38-9.679-5.23-1.698-11.53 1.037-14.11 6.712-1.72 5.133-1.72 5.344-.64 12.04-4.32 1.21-7.35 4.537-5.94 10.136 2.49 5.57 11.13 8.003 16.76 5.394.16.93.35 2.755-.12 4.381-.48 1.687-1.04 5.69-1.3 7.678-.02.145 0 .293.04.434.04.14.12.27.22.38.1.11.22.197.36.257.14.06.29.09.44.089l6.32-.045c.15-.002.3-.034.43-.097.14-.062.26-.153.36-.266.1-.112.17-.244.21-.386a.925.925 0 0 0 .03-.437c-.39-2.475-1.22-8.316-.98-12.303l1.45.071c5.06 3.245 10.33 2.345 11.87-.156 1.14-1.854.58-5.15-1.28-6.714-1.72-1.443-4.14-1.069-4.17-1.562-.04-.581 3.38-.527 6.25-2.34 2.79-1.759 5.65-5.635 4.5-8.591Z" fill="#A4D24F"/><path d="M1770.91 230a.794.794 0 0 1-.63-.309.815.815 0 0 1-.16-.329.893.893 0 0 1 .01-.364c.42-1.75 1.38-5.334.06-7.04-1.08-1.402-2.63-.446-4.93-1.799-2.69-1.586-3.56-4.799-3.92-6.125-2.03-7.42 5.45-21.519 12.98-19.907 4.27.914 11.95 7.738 10.5 19.619-.11.879-1.75 5.846-5.54 7.154-2.05.707-3.23-.146-4.21.926-1.39 1.518-.17 5.328.3 7.156a.808.808 0 0 1-.42.929.81.81 0 0 1-.35.083l-3.69.006Z" fill="#F7BC00"/><path d="M1872.61 224a.556.556 0 0 1-.43-.206.576.576 0 0 1-.1-.219.662.662 0 0 1 .01-.243c.28-1.167.92-3.556.04-4.693-.72-.935-1.76-.298-3.29-1.2-1.79-1.057-2.38-3.199-2.62-4.083-1.35-4.947 3.64-14.346 8.66-13.271 2.85.609 7.97 5.159 7 13.079-.07.586-1.17 3.898-3.69 4.769-1.37.471-2.16-.097-2.81.617-.93 1.013-.11 3.553.2 4.771.02.08.02.163.01.244a.591.591 0 0 1-.1.221.574.574 0 0 1-.19.154.495.495 0 0 1-.23.056l-2.46.004Z" fill="#A4D24F"/><path d="M1400.68 193.651c-1.61-4.206-9.23-5.538-13.63-3.262-3.51 1.815-4.97 5.917-5.27 5.756-.31-.171 2.82-4.096 2.73-8.635-.09-4.593-3.47-10.093-8.96-11.897-6.35-2.087-14.01 1.275-17.14 8.251-2.08 6.308-2.08 6.568-.78 14.799-5.24 1.488-8.92 5.576-7.21 12.459 3.03 6.845 13.52 9.837 20.36 6.63.19 1.143.42 3.386-.14 5.384-.6 2.075-1.27 6.995-1.58 9.438-.03.179-.01.361.04.533.06.173.15.332.27.467.12.135.27.243.44.317.16.073.34.11.53.109l7.67-.056c.18-.001.36-.042.53-.119a1.228 1.228 0 0 0 .69-.801c.05-.175.06-.358.04-.537-.48-3.042-1.49-10.222-1.2-15.123l1.77.087c6.14 3.989 12.54 2.883 14.41-.192 1.38-2.278.7-6.329-1.56-8.252-2.09-1.774-5.03-1.313-5.06-1.919-.04-.715 4.1-.648 7.59-2.877 3.38-2.162 6.86-6.926 5.46-10.56ZM1765.59 196.983c-.7-1.4-3.87-7.817-10.35-9.491-3.09-.799-7.2-.587-10.02.367-.61.217-1.22.401-1.84.55-1.79.422-5.1 2.732-7.64 4.478a8.54 8.54 0 0 1-6.19 1.416c-17.02-2.738-22.65 8.5-21.38 15.197 3.51 13.292 23.95 11.619 25.03 11.347-.86 3.346-2.01 13.294-2.22 16.862-.01.166.01.331.07.487.05.156.14.298.26.419.11.121.25.217.4.283.15.067.31.101.48.102h7.91c.16 0 .33-.034.48-.1.16-.066.29-.163.41-.285.11-.122.2-.265.26-.422.05-.157.08-.324.07-.491-.18-2.587-.76-8.404-.58-11.538.14-2.385.24-4.058.31-5.231 2.6.545 10.24-.391 13.78-1.534.43-.139 11.09-3.05 12.01-12.517.56-5.946-.46-8.329-1.25-9.899ZM1905.24 201.375c-.38-.753-2.1-4.209-5.62-5.11-1.67-.43-3.9-.316-5.43.198-.33.116-.66.215-1 .296-.97.227-2.77 1.471-4.14 2.411-.98.673-2.18.946-3.36.762-9.23-1.474-12.29 4.577-11.6 8.183 1.91 7.158 12.99 6.257 13.58 6.11-.47 1.802-1.09 7.159-1.21 9.08 0 .089.01.178.04.262a.67.67 0 0 0 .14.226.668.668 0 0 0 .48.207h4.29c.09 0 .18-.018.26-.054a.686.686 0 0 0 .22-.153.679.679 0 0 0 .18-.492c-.09-1.393-.41-4.525-.31-6.213.08-1.284.13-2.185.17-2.817 1.4.294 5.55-.21 7.47-.825.23-.075 6.01-1.643 6.51-6.74.31-3.202-.25-4.485-.67-5.331Z" fill="#008009"/><path d="M1725.78 203.645c-1.11-2.852-6.33-3.755-9.35-2.212-2.41 1.231-3.41 4.012-3.62 3.903-.21-.116 1.93-2.778 1.87-5.855-.06-3.113-2.38-6.843-6.14-8.066-4.36-1.414-9.62.865-11.77 5.594-1.43 4.277-1.43 4.453-.53 10.034-3.6 1.008-6.12 3.78-4.95 8.447 2.08 4.64 9.28 6.669 13.97 4.495.13.774.29 2.295-.1 3.65-.4 1.406-.87 4.742-1.08 6.398a.743.743 0 0 0 .03.362c.04.117.1.225.18.316a.89.89 0 0 0 .67.289l5.26-.038a.929.929 0 0 0 .37-.08c.11-.052.21-.128.3-.222a.795.795 0 0 0 .17-.322.748.748 0 0 0 .02-.364c-.32-2.062-1.01-6.93-.81-10.252l1.21.059c4.21 2.704 8.61 1.954 9.89-.131.95-1.544.48-4.291-1.07-5.594-1.43-1.203-3.45-.891-3.48-1.301-.02-.485 2.82-.44 5.22-1.951 2.31-1.466 4.7-4.696 3.74-7.159Z" fill="#275243"/></g><defs><clipPath id="clip0_2145_86518"><path fill="#fff" d="M0 0h2000v224H0z"/></clipPath></defs></svg>
