<svg width="2000" height="224" viewBox="0 0 2000 224" fill="none" xmlns="http://www.w3.org/2000/svg">
<g clip-path="url(#clip0_118_12311)">
<path d="M1277.26 178.833C1284.89 177.99 1287.72 171.59 1285.79 168.276C1284.11 161.71 1279.52 160.616 1273.25 162.648C1278.67 152.66 1274.44 149.104 1266.52 148C1256.06 148.703 1252.98 157.221 1258.89 163.275C1250.49 157.63 1240.09 168.485 1250 175.907C1244.23 176.427 1239.6 182.228 1246.33 188.55C1252.13 193.739 1257.14 192.571 1261.97 189.893C1261.71 204.686 1261.03 218.027 1260.61 228.569C1260.59 229.284 1261.3 229.874 1262.19 229.874H1268.93C1269.83 229.874 1270.54 229.271 1270.51 228.549C1269.87 217.757 1269.1 205.039 1268.73 191.452C1278.31 196.829 1285.11 195.315 1287.34 189.167C1289.52 184.42 1283.1 178.537 1277.26 178.833Z" fill="#275243"/>
<path d="M1686.26 185.833C1693.89 184.99 1696.72 178.59 1694.79 175.276C1693.11 168.71 1688.52 167.616 1682.25 169.648C1687.67 159.66 1683.44 156.104 1675.52 155C1665.06 155.703 1661.98 164.221 1667.89 170.275C1659.49 164.63 1649.09 175.485 1659 182.907C1653.23 183.427 1648.6 189.228 1655.33 195.55C1661.13 200.739 1666.14 199.571 1670.97 196.893C1670.71 211.686 1670.03 225.027 1669.61 235.569C1669.59 236.284 1670.3 236.874 1671.19 236.874H1677.93C1678.83 236.874 1679.54 236.271 1679.51 235.549C1678.87 224.757 1678.1 212.039 1677.73 198.452C1687.31 203.829 1694.11 202.315 1696.34 196.167C1698.52 191.42 1692.1 185.537 1686.26 185.833Z" fill="#5F4900"/>
<path d="M998.109 218.242C995.386 214.271 992.521 210.953 989.462 208.557C988.63 207.894 988.053 206.964 987.831 205.924C987.609 204.884 987.754 203.799 988.243 202.854V202.854C988.846 201.673 989.207 200.384 989.306 199.061C989.405 197.739 989.24 196.41 988.82 195.152C988.4 193.895 987.734 192.733 986.86 191.735C985.987 190.737 984.923 189.922 983.731 189.339L983.157 189.059C980.499 187.757 977.438 187.543 974.625 188.464L974.369 188.547C972.996 188.996 971.737 189.736 970.678 190.718C969.619 191.699 968.785 192.897 968.234 194.231C967.683 195.565 967.427 197.002 967.485 198.444C967.542 199.886 967.911 201.299 968.567 202.585L968.633 202.715C969.115 203.668 969.254 204.757 969.027 205.8C968.8 206.843 968.22 207.776 967.386 208.442C962.834 212.114 959.941 216.447 957.48 222.238C951.734 235.783 963.827 244.904 974.731 252.035C974.275 260.148 973.548 267.491 972.641 273.543C972.552 274.14 973.327 274.653 974.316 274.653H983.176C984.156 274.653 984.929 274.147 984.853 273.555C983.998 266.922 983.437 259.168 983.091 250.871C995.645 241.194 1007.57 232.047 998.109 218.242Z" fill="#40521F"/>
<path d="M969.578 171.327C966.048 166.18 962.336 161.879 958.371 158.773C957.292 157.914 956.545 156.708 956.257 155.36C955.969 154.013 956.157 152.607 956.791 151.382V151.382C957.572 149.851 958.04 148.18 958.168 146.466C958.297 144.752 958.083 143.03 957.538 141.4C956.994 139.769 956.131 138.263 954.998 136.97C953.866 135.676 952.488 134.621 950.943 133.865L950.198 133.502C946.754 131.814 942.786 131.537 939.14 132.73L938.808 132.838C937.029 133.42 935.397 134.38 934.025 135.651C932.652 136.923 931.571 138.477 930.857 140.206C930.142 141.934 929.811 143.797 929.885 145.666C929.96 147.535 930.438 149.366 931.288 151.033L931.374 151.202C931.998 152.436 932.178 153.848 931.884 155.2C931.59 156.551 930.839 157.761 929.758 158.624C923.858 163.383 920.107 168.999 916.918 176.505C909.471 194.061 925.145 205.884 939.277 215.126C938.686 225.641 937.745 235.159 936.569 243.003C936.454 243.777 937.458 244.442 938.74 244.442H950.223C951.494 244.442 952.496 243.786 952.397 243.019C951.288 234.421 950.562 224.371 950.113 213.618C966.385 201.075 981.844 189.219 969.578 171.327Z" fill="#275243"/>
<path d="M779.404 108.87C778.881 90.6923 769.486 84.6594 755.329 85.1653C748.449 59.7076 721.179 55.9314 706.496 75.1213C698.104 69.1589 670.729 64.2137 672.381 99.6937C660.824 98.971 656 109.145 656.011 114.527C655.461 138.854 675.954 132.559 683.66 130.814C688.765 134.668 696.844 134.518 703.311 133.524C707.951 141.315 708.464 149.711 706.067 158.096C705.967 158.433 705.947 158.788 706.008 159.134C706.069 159.48 706.209 159.807 706.418 160.088C706.626 160.37 706.897 160.599 707.209 160.758C707.52 160.916 707.865 160.999 708.214 161H735.333C735.661 161 735.985 160.928 736.282 160.789C736.579 160.649 736.842 160.446 737.052 160.192C737.263 159.939 737.415 159.643 737.499 159.324C737.583 159.006 737.596 158.672 737.538 158.348C735.829 148.952 737.317 140.061 742.428 132.268C746.111 131.117 749.565 129.408 752.585 127.029C757.256 135.358 765.412 137.785 775.832 136.335C790.132 133.443 797.258 116.3 779.404 108.87ZM720.577 141.586L714.56 131.455C719.315 133.053 724.281 133.925 729.293 134.043L724.476 141.64C724.267 141.973 723.977 142.246 723.633 142.434C723.289 142.622 722.902 142.717 722.511 142.712C722.12 142.707 721.736 142.6 721.398 142.403C721.059 142.206 720.776 141.925 720.577 141.586V141.586Z" fill="#003C03"/>
<path d="M1134.7 191.091C1132.68 185.755 1123.12 184.066 1117.6 186.952C1113.2 189.255 1111.37 194.458 1111 194.254C1110.6 194.037 1114.53 189.058 1114.42 183.301C1114.31 177.475 1110.06 170.498 1103.18 168.21C1095.22 165.564 1085.61 169.827 1081.68 178.676C1079.07 186.678 1079.07 187.007 1080.71 197.448C1074.13 199.335 1069.52 204.521 1071.67 213.251C1075.46 221.934 1088.62 225.729 1097.2 221.661C1097.43 223.11 1097.73 225.956 1097.02 228.49C1096.27 231.122 1095.43 237.362 1095.03 240.461C1095 240.688 1095.02 240.919 1095.09 241.138C1095.16 241.357 1095.27 241.559 1095.43 241.73C1095.58 241.902 1095.77 242.039 1095.97 242.132C1096.18 242.225 1096.41 242.272 1096.64 242.27L1106.26 242.2C1106.49 242.198 1106.72 242.147 1106.93 242.049C1107.14 241.952 1107.33 241.81 1107.48 241.635C1107.63 241.46 1107.74 241.254 1107.8 241.033C1107.86 240.811 1107.88 240.578 1107.84 240.351C1107.24 236.492 1105.98 227.385 1106.34 221.169L1108.56 221.279C1116.26 226.339 1124.29 224.936 1126.63 221.036C1128.37 218.146 1127.52 213.008 1124.68 210.569C1122.06 208.318 1118.37 208.902 1118.33 208.134C1118.28 207.228 1123.48 207.312 1127.86 204.484C1132.09 201.743 1136.45 195.7 1134.7 191.091Z" fill="#003C03"/>
<path d="M978.568 191.658C976.542 186.322 966.988 184.633 961.466 187.52C957.066 189.823 955.24 195.025 954.864 194.821C954.469 194.604 958.393 189.625 958.284 183.868C958.175 178.043 953.929 171.065 947.048 168.777C939.083 166.131 929.479 170.394 925.549 179.243C922.934 187.245 922.934 187.574 924.572 198.015C917.999 199.902 913.385 205.088 915.533 213.819C919.329 222.501 932.484 226.296 941.064 222.228C941.298 223.677 941.594 226.523 940.881 229.058C940.14 231.689 939.293 237.93 938.9 241.029C938.87 241.256 938.89 241.486 938.957 241.705C939.024 241.924 939.138 242.126 939.29 242.298C939.443 242.469 939.63 242.606 939.84 242.699C940.05 242.793 940.278 242.84 940.508 242.838L950.128 242.767C950.359 242.765 950.587 242.714 950.796 242.616C951.006 242.519 951.192 242.378 951.341 242.202C951.491 242.027 951.601 241.822 951.664 241.6C951.727 241.378 951.741 241.146 951.706 240.918C951.107 237.06 949.846 227.952 950.209 221.737L952.421 221.847C960.129 226.906 968.155 225.503 970.499 221.603C972.234 218.713 971.38 213.575 968.545 211.136C965.925 208.886 962.236 209.47 962.193 208.702C962.142 207.795 967.343 207.879 971.72 205.052C975.956 202.31 980.317 196.267 978.568 191.658Z" fill="#003C03"/>
<path d="M937.475 166.206C934.974 159.619 923.18 157.534 916.363 161.097C910.93 163.94 908.677 170.363 908.212 170.111C907.725 169.843 912.569 163.696 912.434 156.59C912.3 149.398 907.059 140.784 898.563 137.96C888.731 134.693 876.875 139.956 872.023 150.88C868.795 160.758 868.795 161.164 870.817 174.054C862.702 176.383 857.006 182.785 859.658 193.563C864.344 204.282 880.584 208.967 891.176 203.945C891.465 205.734 891.83 209.247 890.95 212.376C890.035 215.625 888.99 223.329 888.505 227.154C888.468 227.435 888.492 227.719 888.575 227.99C888.658 228.26 888.799 228.51 888.987 228.721C889.175 228.933 889.406 229.102 889.665 229.217C889.925 229.332 890.206 229.39 890.489 229.388L902.366 229.3C902.651 229.298 902.932 229.235 903.191 229.115C903.449 228.994 903.679 228.82 903.864 228.603C904.048 228.387 904.184 228.133 904.262 227.86C904.34 227.586 904.357 227.299 904.314 227.018C903.574 222.255 902.017 211.012 902.465 203.338L905.196 203.474C914.712 209.72 924.62 207.988 927.514 203.174C929.656 199.606 928.602 193.263 925.101 190.252C921.867 187.474 917.313 188.195 917.26 187.246C917.197 186.128 923.618 186.231 929.022 182.741C934.251 179.356 939.635 171.896 937.475 166.206Z" fill="#003C03"/>
<path d="M1864.95 211.004C1863.74 204.042 1846.78 206.917 1847.09 202.225C1847.39 197.533 1860.36 200.31 1860.77 195.779C1861.17 191.249 1849.19 193.391 1847.09 188.603C1845.54 185.075 1856.3 187.532 1852.53 181.605C1851.81 180.473 1851.08 179.35 1850.11 178.422C1848.88 177.236 1846.8 175.264 1845.14 173.809C1844.55 173.288 1843.79 173 1843 173C1842.21 173 1841.45 173.288 1840.85 173.809C1839.18 175.278 1837.07 177.284 1835.84 178.463C1834.89 179.376 1834.15 180.471 1833.48 181.605C1829.73 187.915 1840.92 185.154 1839.51 188.603C1837.55 193.448 1824.56 191.933 1825.77 196.322C1826.98 200.711 1838.35 197.733 1838.65 202.425C1838.96 207.117 1822.26 204.042 1821.05 211.004C1820.09 216.481 1834.23 216.807 1840.3 216.696C1840.27 219.287 1839.85 221.957 1839.17 224.535C1839.12 224.708 1839.12 224.889 1839.15 225.065C1839.19 225.24 1839.27 225.405 1839.38 225.547C1839.49 225.688 1839.63 225.803 1839.79 225.881C1839.95 225.96 1840.13 226.001 1840.3 226H1845.7C1845.88 225.999 1846.06 225.958 1846.22 225.879C1846.38 225.801 1846.52 225.686 1846.63 225.545C1846.74 225.404 1846.81 225.24 1846.85 225.065C1846.89 224.89 1846.88 224.709 1846.84 224.536C1846.2 221.968 1845.83 219.341 1845.74 216.697C1851.83 216.805 1865.9 216.47 1864.95 211.004Z" fill="#275243"/>
<path d="M1231.33 196.778C1229.53 192.035 1221.03 190.533 1216.11 193.099C1212.2 195.146 1210.57 199.77 1210.24 199.589C1209.88 199.396 1213.38 194.97 1213.28 189.853C1213.18 184.675 1209.4 178.473 1203.28 176.439C1196.19 174.087 1187.64 177.876 1184.15 185.742C1181.82 192.855 1181.82 193.147 1183.28 202.428C1177.43 204.105 1173.32 208.715 1175.23 216.476C1178.61 224.194 1190.32 227.567 1197.95 223.951C1198.16 225.239 1198.43 227.768 1197.79 230.022C1197.13 232.361 1196.38 237.908 1196.03 240.662C1196 240.864 1196.02 241.069 1196.08 241.264C1196.14 241.459 1196.24 241.638 1196.38 241.791C1196.51 241.943 1196.68 242.065 1196.86 242.147C1197.05 242.23 1197.25 242.272 1197.46 242.271L1206.02 242.208C1206.23 242.206 1206.43 242.16 1206.62 242.074C1206.8 241.987 1206.97 241.862 1207.1 241.706C1207.23 241.55 1207.33 241.367 1207.39 241.17C1207.44 240.973 1207.46 240.767 1207.43 240.564C1206.89 237.134 1205.77 229.039 1206.09 223.514L1208.06 223.612C1214.92 228.109 1222.06 226.862 1224.15 223.396C1225.69 220.827 1224.94 216.259 1222.41 214.091C1220.08 212.091 1216.8 212.61 1216.76 211.927C1216.71 211.122 1221.34 211.196 1225.24 208.683C1229.01 206.246 1232.89 200.874 1231.33 196.778Z" fill="#003C03"/>
<path d="M1270.96 219.161C1270.63 207.533 1264.62 203.675 1255.56 203.998C1251.16 187.714 1233.72 185.299 1224.33 197.574C1218.96 193.76 1201.45 190.597 1202.5 213.291C1195.11 212.829 1192.03 219.337 1192.03 222.779C1191.68 238.34 1204.79 234.313 1209.72 233.197C1212.98 235.662 1218.15 235.566 1222.29 234.93C1225.26 239.914 1225.59 245.284 1224.05 250.648C1223.99 250.863 1223.98 251.09 1224.01 251.312C1224.05 251.533 1224.14 251.742 1224.28 251.922C1224.41 252.102 1224.58 252.249 1224.78 252.35C1224.98 252.451 1225.2 252.504 1225.43 252.505H1242.77C1242.98 252.505 1243.19 252.459 1243.38 252.37C1243.57 252.28 1243.74 252.15 1243.87 251.988C1244.01 251.827 1244.1 251.637 1244.16 251.433C1244.21 251.229 1244.22 251.016 1244.18 250.808C1243.09 244.799 1244.04 239.112 1247.31 234.127C1249.67 233.391 1251.88 232.298 1253.81 230.776C1256.79 236.103 1262.01 237.655 1268.68 236.729C1277.82 234.878 1282.38 223.913 1270.96 219.161ZM1233.33 240.087L1229.48 233.607C1232.53 234.629 1235.7 235.187 1238.91 235.262L1235.83 240.122C1235.69 240.335 1235.51 240.509 1235.29 240.63C1235.07 240.75 1234.82 240.811 1234.57 240.807C1234.32 240.804 1234.08 240.736 1233.86 240.61C1233.64 240.484 1233.46 240.304 1233.33 240.087V240.087Z" fill="#003C03"/>
<path d="M1482.93 201.341C1482.6 189.713 1476.59 185.854 1467.53 186.178C1463.13 169.894 1445.69 167.479 1436.3 179.753C1430.93 175.939 1413.42 172.776 1414.48 195.471C1407.09 195.008 1404 201.516 1404.01 204.959C1403.66 220.519 1416.76 216.493 1421.69 215.376C1424.96 217.842 1430.13 217.746 1434.26 217.11C1437.23 222.093 1437.56 227.464 1436.02 232.827C1435.96 233.043 1435.95 233.27 1435.99 233.491C1436.03 233.712 1436.12 233.921 1436.25 234.102C1436.38 234.282 1436.56 234.428 1436.76 234.53C1436.95 234.631 1437.17 234.684 1437.4 234.685H1454.74C1454.95 234.685 1455.16 234.639 1455.35 234.549C1455.54 234.46 1455.71 234.33 1455.84 234.168C1455.98 234.006 1456.08 233.817 1456.13 233.613C1456.18 233.409 1456.19 233.196 1456.15 232.988C1455.06 226.978 1456.01 221.291 1459.28 216.307C1461.64 215.571 1463.85 214.477 1465.78 212.955C1468.77 218.283 1473.98 219.835 1480.65 218.908C1489.8 217.058 1494.35 206.093 1482.93 201.341ZM1445.31 222.267L1441.46 215.787C1444.5 216.809 1447.68 217.367 1450.88 217.442L1447.8 222.301C1447.67 222.514 1447.48 222.689 1447.26 222.809C1447.04 222.929 1446.79 222.99 1446.54 222.987C1446.29 222.983 1446.05 222.915 1445.83 222.789C1445.61 222.663 1445.43 222.483 1445.31 222.267V222.267Z" fill="#40521F"/>
<path d="M1841.2 209.382C1841.02 202.89 1837.65 200.735 1832.58 200.916C1830.12 191.824 1820.35 190.476 1815.09 197.329C1812.08 195.2 1802.28 193.433 1802.87 206.105C1798.73 205.847 1797 209.48 1797 211.403C1796.81 220.091 1804.15 217.843 1806.91 217.219C1808.74 218.596 1811.63 218.542 1813.95 218.187C1815.61 220.97 1815.79 223.968 1814.93 226.963C1814.9 227.083 1814.89 227.21 1814.91 227.334C1814.94 227.457 1814.99 227.574 1815.06 227.674C1815.13 227.775 1815.23 227.857 1815.34 227.913C1815.46 227.97 1815.58 228 1815.7 228H1825.42C1825.54 228 1825.65 227.974 1825.76 227.924C1825.86 227.875 1825.96 227.802 1826.03 227.712C1826.11 227.621 1826.16 227.515 1826.19 227.402C1826.22 227.288 1826.23 227.169 1826.21 227.053C1825.6 223.697 1826.13 220.522 1827.96 217.739C1829.28 217.328 1830.52 216.717 1831.6 215.867C1833.27 218.842 1836.19 219.709 1839.93 219.191C1845.05 218.158 1847.6 212.036 1841.2 209.382ZM1820.13 221.066L1817.98 217.448C1819.68 218.019 1821.46 218.33 1823.25 218.372L1821.53 221.086C1821.45 221.205 1821.35 221.302 1821.23 221.369C1821.1 221.436 1820.97 221.471 1820.82 221.469C1820.68 221.467 1820.55 221.429 1820.43 221.358C1820.3 221.288 1820.2 221.187 1820.13 221.066V221.066Z" fill="#40521F"/>
<path d="M1654.93 201.341C1654.6 189.713 1648.59 185.854 1639.53 186.178C1635.13 169.894 1617.69 167.479 1608.3 179.753C1602.93 175.939 1585.42 172.776 1586.48 195.471C1579.09 195.008 1576 201.516 1576.01 204.959C1575.66 220.519 1588.76 216.493 1593.69 215.376C1596.96 217.842 1602.13 217.746 1606.26 217.11C1609.23 222.093 1609.56 227.464 1608.02 232.827C1607.96 233.043 1607.95 233.27 1607.99 233.491C1608.03 233.712 1608.12 233.921 1608.25 234.102C1608.38 234.282 1608.56 234.428 1608.76 234.53C1608.95 234.631 1609.17 234.684 1609.4 234.685H1626.74C1626.95 234.685 1627.16 234.639 1627.35 234.549C1627.54 234.46 1627.71 234.33 1627.84 234.168C1627.98 234.006 1628.08 233.817 1628.13 233.613C1628.18 233.409 1628.19 233.196 1628.15 232.988C1627.06 226.978 1628.01 221.291 1631.28 216.307C1633.64 215.571 1635.85 214.477 1637.78 212.955C1640.77 218.283 1645.98 219.835 1652.65 218.908C1661.8 217.058 1666.35 206.093 1654.93 201.341ZM1617.31 222.267L1613.46 215.787C1616.5 216.809 1619.68 217.367 1622.88 217.442L1619.8 222.301C1619.67 222.514 1619.48 222.689 1619.26 222.809C1619.04 222.929 1618.79 222.99 1618.54 222.987C1618.29 222.983 1618.05 222.915 1617.83 222.789C1617.61 222.663 1617.43 222.483 1617.31 222.267V222.267Z" fill="#275243"/>
<path d="M1928.55 211.766C1928.43 207.499 1926.25 206.083 1922.98 206.202C1921.39 200.227 1915.08 199.341 1911.68 203.845C1909.74 202.445 1903.41 201.285 1903.79 209.612C1901.12 209.442 1900 211.83 1900 213.093C1899.88 218.803 1904.62 217.325 1906.4 216.916C1907.58 217.82 1909.45 217.785 1910.94 217.552C1912.02 219.38 1912.14 221.351 1911.58 223.319C1911.56 223.398 1911.55 223.481 1911.57 223.562C1911.58 223.643 1911.62 223.72 1911.66 223.786C1911.71 223.852 1911.77 223.906 1911.85 223.943C1911.92 223.98 1912 224 1912.08 224H1918.35C1918.43 224 1918.5 223.983 1918.57 223.95C1918.64 223.918 1918.7 223.87 1918.75 223.81C1918.8 223.751 1918.83 223.682 1918.85 223.607C1918.87 223.532 1918.88 223.454 1918.86 223.378C1918.47 221.172 1918.81 219.086 1919.99 217.257C1920.85 216.987 1921.65 216.586 1922.34 216.027C1923.42 217.982 1925.31 218.551 1927.72 218.211C1931.03 217.532 1932.68 213.509 1928.55 211.766ZM1914.94 219.444L1913.55 217.066C1914.65 217.441 1915.8 217.646 1916.96 217.673L1915.84 219.456C1915.79 219.534 1915.73 219.599 1915.65 219.643C1915.57 219.687 1915.48 219.709 1915.39 219.708C1915.3 219.707 1915.21 219.682 1915.13 219.635C1915.05 219.589 1914.99 219.523 1914.94 219.444V219.444Z" fill="#5F4900"/>
<path d="M1327.93 197.341C1327.6 185.713 1321.59 181.854 1312.53 182.178C1308.13 165.894 1290.69 163.479 1281.3 175.753C1275.93 171.939 1258.42 168.776 1259.48 191.471C1252.09 191.008 1249 197.516 1249.01 200.959C1248.66 216.519 1261.76 212.493 1266.69 211.376C1269.96 213.842 1275.13 213.746 1279.26 213.11C1282.23 218.093 1282.56 223.464 1281.02 228.827C1280.96 229.043 1280.95 229.27 1280.99 229.491C1281.03 229.712 1281.12 229.921 1281.25 230.102C1281.38 230.282 1281.56 230.428 1281.76 230.53C1281.95 230.631 1282.17 230.684 1282.4 230.685H1299.74C1299.95 230.685 1300.16 230.639 1300.35 230.549C1300.54 230.46 1300.71 230.33 1300.84 230.168C1300.98 230.006 1301.08 229.817 1301.13 229.613C1301.18 229.409 1301.19 229.196 1301.15 228.988C1300.06 222.978 1301.01 217.291 1304.28 212.307C1306.64 211.571 1308.85 210.477 1310.78 208.955C1313.77 214.283 1318.98 215.835 1325.65 214.908C1334.8 213.058 1339.35 202.093 1327.93 197.341ZM1290.31 218.267L1286.46 211.787C1289.5 212.809 1292.68 213.367 1295.88 213.442L1292.8 218.301C1292.67 218.514 1292.48 218.689 1292.26 218.809C1292.04 218.929 1291.79 218.99 1291.54 218.987C1291.29 218.983 1291.05 218.915 1290.83 218.789C1290.61 218.663 1290.43 218.483 1290.31 218.267V218.267Z" fill="#003C03"/>
<path d="M883.851 211.267C883.301 192.139 873.415 185.791 858.517 186.323C851.278 159.536 822.584 155.562 807.134 175.755C798.303 169.481 769.499 164.277 771.236 201.611C759.076 200.85 754 211.556 754.011 217.219C753.433 242.817 774.997 236.193 783.105 234.356C788.476 238.412 796.978 238.254 803.782 237.208C808.665 245.406 809.204 254.241 806.682 263.064C806.578 263.418 806.557 263.792 806.621 264.156C806.685 264.52 806.832 264.864 807.052 265.16C807.271 265.457 807.556 265.698 807.884 265.864C808.212 266.031 808.574 266.118 808.941 266.119H837.477C837.822 266.12 838.163 266.044 838.476 265.897C838.789 265.75 839.065 265.536 839.287 265.27C839.508 265.003 839.668 264.692 839.756 264.356C839.845 264.021 839.859 263.67 839.797 263.328C837.999 253.442 839.565 244.087 844.943 235.887C848.819 234.676 852.452 232.877 855.63 230.373C860.546 239.138 869.127 241.691 880.092 240.166C895.139 237.123 902.637 219.084 883.851 211.267ZM821.95 245.691L815.619 235.031C820.622 236.713 825.848 237.63 831.121 237.754L826.053 245.748C825.833 246.099 825.528 246.386 825.166 246.584C824.804 246.781 824.397 246.882 823.986 246.876C823.574 246.87 823.17 246.758 822.814 246.551C822.458 246.343 822.16 246.047 821.95 245.691V245.691Z" fill="#003C03"/>
<path d="M1002.76 207.095C1012.45 206.029 1016.05 197.929 1013.6 193.734C1011.47 185.424 1005.63 184.039 997.655 186.611C1004.56 173.971 999.168 169.47 989.099 168.072C975.804 168.962 971.888 179.743 979.4 187.405C968.727 180.26 955.499 193.999 968.098 203.392C960.76 204.05 954.876 211.393 963.433 219.393C970.804 225.961 977.181 224.483 983.322 221.094C982.981 239.816 982.118 256.7 981.594 270.043C981.557 270.948 982.462 271.694 983.591 271.694H992.172C993.313 271.694 994.215 270.931 994.17 270.017C993.356 256.358 992.377 240.262 991.915 223.067C1004.09 229.872 1012.74 227.956 1015.57 220.174C1018.35 214.167 1010.18 206.721 1002.76 207.095Z" fill="#275243"/>
<path d="M858.337 164.059C856.01 160.813 850.156 161.113 848.457 164.689L848.415 164.777C847.062 139.099 842.393 119.383 828.527 116.19C824.652 115.298 820.692 117.66 820.158 121.054C817.434 138.328 807.291 153.997 808.32 164.904C806.964 161.474 803.757 158.429 800.543 160.607C799.717 161.18 799.108 162.011 798.811 162.968C791.036 187.16 799.464 202.081 823.166 203.017C821.849 217.351 821.306 230.341 821.959 240.747C822.054 242.236 823.067 243.5 824.556 243.5H835.681C837.215 243.5 838.552 242.17 838.269 240.67C836.207 229.659 834.671 216.552 835.33 202.353C857.222 199.003 872.917 184.361 858.337 164.059Z" fill="#5F4900"/>
<path d="M1092.41 176.552C1091.45 174.645 1087.15 165.905 1078.36 163.625C1074.16 162.537 1068.57 162.825 1064.74 164.125C1063.92 164.42 1063.09 164.67 1062.24 164.874C1059.81 165.448 1055.32 168.595 1051.88 170.973C1049.43 172.674 1046.42 173.365 1043.47 172.901C1020.36 169.172 1012.72 184.478 1014.44 193.599C1019.2 211.702 1046.96 209.424 1048.42 209.054C1047.25 213.61 1045.7 227.16 1045.41 232.019C1045.39 232.244 1045.42 232.47 1045.5 232.682C1045.58 232.894 1045.7 233.088 1045.85 233.253C1046.01 233.417 1046.19 233.548 1046.4 233.639C1046.61 233.729 1046.83 233.776 1047.05 233.777H1057.79C1058.01 233.777 1058.24 233.731 1058.45 233.641C1058.66 233.55 1058.84 233.418 1059 233.253C1059.15 233.087 1059.27 232.891 1059.35 232.677C1059.43 232.464 1059.46 232.236 1059.44 232.01C1059.21 228.486 1058.42 220.563 1058.67 216.295C1058.86 213.046 1058.98 210.768 1059.08 209.17C1062.61 209.913 1072.99 208.638 1077.79 207.081C1078.37 206.891 1092.85 202.927 1094.1 190.034C1094.86 181.935 1093.47 178.69 1092.41 176.552Z" fill="#275243"/>
<path d="M1483.93 197.679C1483.39 196.602 1480.97 191.666 1476.03 190.378C1473.67 189.764 1470.54 189.927 1468.39 190.661C1467.93 190.828 1467.46 190.969 1466.98 191.084C1465.62 191.408 1463.09 193.186 1461.16 194.528C1459.78 195.489 1458.09 195.88 1456.44 195.618C1443.46 193.512 1439.16 202.156 1440.13 207.308C1442.81 217.532 1458.4 216.245 1459.22 216.036C1458.56 218.61 1457.69 226.263 1457.53 229.007C1457.52 229.134 1457.54 229.262 1457.58 229.381C1457.62 229.501 1457.69 229.611 1457.78 229.704C1457.86 229.797 1457.97 229.871 1458.08 229.922C1458.2 229.973 1458.32 229.999 1458.45 230H1464.48C1464.61 230 1464.73 229.974 1464.85 229.923C1464.97 229.872 1465.07 229.798 1465.16 229.704C1465.25 229.61 1465.31 229.5 1465.36 229.379C1465.4 229.258 1465.42 229.13 1465.41 229.002C1465.28 227.012 1464.84 222.537 1464.97 220.126C1465.08 218.291 1465.15 217.004 1465.21 216.102C1467.19 216.522 1473.02 215.802 1475.72 214.922C1476.04 214.815 1484.18 212.576 1484.88 205.294C1485.31 200.72 1484.52 198.887 1483.93 197.679Z" fill="#003C03"/>
<path d="M838.201 144.597C837.246 142.69 832.945 133.95 824.149 131.67C819.949 130.581 814.363 130.87 810.534 132.17C809.716 132.465 808.882 132.715 808.036 132.919C805.603 133.493 801.112 136.64 797.668 139.017C795.219 140.719 792.208 141.41 789.262 140.946C766.151 137.217 758.51 152.523 760.233 161.644C764.995 179.747 792.748 177.469 794.213 177.099C793.047 181.655 791.494 195.205 791.199 200.064C791.185 200.289 791.218 200.515 791.295 200.727C791.371 200.939 791.49 201.133 791.645 201.298C791.799 201.462 791.985 201.593 792.192 201.684C792.398 201.774 792.621 201.821 792.847 201.822H803.58C803.807 201.822 804.032 201.776 804.24 201.686C804.449 201.595 804.636 201.463 804.791 201.298C804.947 201.132 805.066 200.936 805.143 200.722C805.219 200.508 805.251 200.281 805.236 200.055C805.002 196.531 804.213 188.608 804.461 184.34C804.649 181.091 804.775 178.813 804.875 177.215C808.402 177.958 818.784 176.683 823.582 175.126C824.165 174.936 838.646 170.972 839.889 158.078C840.658 149.98 839.264 146.735 838.201 144.597Z" fill="#40521F"/>
<path d="M806.995 192.124C806.007 157.994 788.269 146.667 761.538 147.616C748.549 99.8183 697.061 92.7284 669.34 128.758C653.495 117.564 601.81 108.279 604.927 174.894C583.108 173.537 574 192.64 574.02 202.746C572.982 248.42 611.675 236.601 626.224 233.324C635.862 240.56 651.117 240.278 663.325 238.413C672.088 253.04 673.054 268.805 668.529 284.548C668.341 285.181 668.304 285.848 668.419 286.497C668.534 287.146 668.798 287.759 669.192 288.289C669.585 288.818 670.097 289.248 670.685 289.545C671.274 289.842 671.923 289.998 672.583 290H723.786C724.405 290 725.016 289.865 725.577 289.603C726.138 289.341 726.635 288.959 727.032 288.484C727.429 288.009 727.717 287.452 727.875 286.854C728.033 286.255 728.058 285.629 727.948 285.02C724.722 267.38 727.531 250.686 737.182 236.055C744.136 233.894 750.656 230.685 756.358 226.217C765.178 241.856 780.576 246.412 800.251 243.691C827.25 238.26 840.704 206.073 806.995 192.124ZM695.925 253.549L684.564 234.528C693.542 237.528 702.918 239.166 712.381 239.386L703.286 253.651C702.892 254.276 702.344 254.789 701.694 255.142C701.045 255.494 700.316 255.674 699.577 255.663C698.838 255.653 698.114 255.453 697.475 255.083C696.835 254.713 696.302 254.185 695.925 253.549V253.549Z" fill="#003C03"/>
<path d="M806.636 125.521C799.629 113.735 775.662 134.939 768.484 135.729C792.425 112.442 792.145 101.258 780.652 95.6784C765.432 92.6468 755.342 107.903 747.467 131.033C748.059 107.162 746.608 86.2604 729.45 88.1147C725.075 88.6065 720.988 90.5413 717.838 93.6131C707.356 103.82 712.411 118.148 726.449 134.871C709.117 123.334 692.899 114.705 683.807 124.684C680.445 128.376 679.379 133.599 680.336 138.498C682.639 150.189 693.88 152.108 711.515 147.035C701.34 152.381 694.97 160.05 691.955 169.774C689.973 176.174 697.324 181.584 702.938 177.916C712.067 171.955 721.602 163.496 731.034 165.021C735.52 205.969 728.517 247.269 720.781 287.336C720.287 289.891 722.419 292.215 725.025 292.215H761.365C764.042 292.215 766.171 289.776 765.582 287.173C756.828 248.541 753.717 206.296 756.872 163.003C775.662 176.082 790.851 181.587 797.245 168.6C800.75 156.814 777.518 157.181 769.04 147.035C776.769 146.511 810.69 153.51 806.636 125.521Z" fill="#275243"/>
<path d="M1183.5 202.761C1182.1 200.807 1178.58 200.988 1177.55 203.141L1177.53 203.194C1176.71 187.735 1173.9 175.866 1165.56 173.943C1163.22 173.406 1160.84 174.828 1160.52 176.872C1158.88 187.271 1152.77 196.704 1153.39 203.27C1152.57 201.205 1150.64 199.372 1148.71 200.683C1148.21 201.028 1147.84 201.528 1147.67 202.105C1142.99 216.669 1148.06 225.651 1162.33 226.214C1161.53 234.844 1161.21 242.664 1161.6 248.929C1161.66 249.825 1162.27 250.586 1163.16 250.586H1169.86C1170.79 250.586 1171.59 249.785 1171.42 248.882C1170.18 242.253 1169.25 234.363 1169.65 225.815C1182.83 223.798 1192.28 214.983 1183.5 202.761Z" fill="#5F4900"/>
<path d="M932.528 185.932C931.127 183.978 927.603 184.159 926.58 186.311L926.555 186.364C925.74 170.906 922.929 159.037 914.582 157.114C912.249 156.577 909.865 157.999 909.543 160.042C907.904 170.442 901.797 179.875 902.417 186.441C901.601 184.376 899.67 182.543 897.735 183.854C897.238 184.199 896.871 184.699 896.692 185.276C892.012 199.84 897.085 208.822 911.354 209.385C910.561 218.015 910.235 225.835 910.628 232.1C910.685 232.996 911.294 233.757 912.191 233.757H918.889C919.812 233.757 920.617 232.956 920.447 232.053C919.205 225.424 918.281 217.534 918.677 208.986C931.857 206.969 941.305 198.154 932.528 185.932Z" fill="#40521F"/>
<path d="M214.563 69.6122C212.554 65.5997 203.503 47.207 184.995 42.4092C176.155 40.1192 164.401 40.7264 156.343 43.4618C154.621 44.0833 152.866 44.6098 151.087 45.0391C145.965 46.2468 136.515 52.8694 129.269 57.8717C124.115 61.4529 117.778 62.9068 111.579 61.9304C62.9441 54.0837 46.8645 86.2923 50.4909 105.487C60.5122 143.582 118.914 138.788 121.996 138.009C119.544 147.598 116.274 176.111 115.654 186.337C115.626 186.811 115.694 187.285 115.856 187.731C116.017 188.178 116.268 188.586 116.592 188.933C116.917 189.279 117.308 189.555 117.743 189.745C118.178 189.934 118.647 190.034 119.122 190.036H141.709C142.187 190.036 142.659 189.939 143.098 189.749C143.537 189.559 143.931 189.281 144.258 188.933C144.585 188.584 144.836 188.172 144.997 187.722C145.158 187.272 145.225 186.794 145.193 186.317C144.702 178.903 143.042 162.229 143.563 153.247C143.959 146.41 144.223 141.616 144.434 138.253C151.855 139.817 173.703 137.135 183.8 133.858C185.028 133.459 215.501 125.117 218.117 97.9833C219.734 80.9402 216.801 74.113 214.563 69.6122Z" fill="#275243"/>
<path d="M630.813 162.6C625.885 134.095 556.896 145.868 558.126 126.658C559.356 107.447 612.13 118.815 613.772 100.267C615.413 81.7185 566.688 90.4894 558.126 70.8824C551.82 56.4385 595.587 66.4991 580.265 42.23C577.341 37.5984 574.375 32.9972 570.438 29.1978C565.415 24.344 556.948 16.2703 550.218 10.3141C547.807 8.17831 544.706 7 541.494 7C538.282 7 535.18 8.17831 532.769 10.3141C525.961 16.3269 517.373 24.5401 512.367 29.3678C508.5 33.1062 505.507 37.5897 502.77 42.23C487.526 68.0677 533.025 56.761 527.321 70.8824C519.314 90.7203 466.491 84.5201 471.42 102.489C476.348 120.458 522.57 108.266 523.822 127.477C525.073 146.687 457.128 134.095 452.187 162.6C448.311 185.026 505.806 186.359 530.513 185.906C530.396 196.515 528.681 207.447 525.909 218C525.726 218.71 525.706 219.453 525.853 220.171C526 220.89 526.308 221.565 526.755 222.145C527.202 222.724 527.775 223.193 528.43 223.515C529.086 223.836 529.805 224.002 530.535 224H552.496C553.223 223.998 553.94 223.829 554.593 223.506C555.245 223.184 555.816 222.715 556.262 222.137C556.708 221.56 557.017 220.887 557.166 220.171C557.315 219.455 557.299 218.714 557.121 218.005C554.532 207.49 553.032 196.735 552.643 185.91C577.428 186.355 634.681 184.982 630.813 162.6Z" fill="#275243"/>
<path d="M1288.87 235.798C1286.67 223.195 1255.85 228.4 1256.4 219.906C1256.95 211.412 1280.53 216.439 1281.26 208.238C1281.99 200.037 1260.23 203.915 1256.4 195.245C1253.59 188.859 1273.14 193.307 1266.29 182.577C1264.99 180.529 1263.66 178.495 1261.9 176.815C1259.66 174.669 1255.88 171.099 1252.87 168.465C1251.79 167.521 1250.41 167 1248.97 167C1247.54 167 1246.15 167.521 1245.08 168.465C1242.04 171.124 1238.2 174.755 1235.96 176.89C1234.24 178.543 1232.9 180.525 1231.68 182.577C1224.87 194.001 1245.19 189.002 1242.64 195.245C1239.07 204.017 1215.47 201.275 1217.67 209.22C1219.88 217.165 1240.52 211.775 1241.08 220.269C1241.64 228.762 1211.29 223.195 1209.08 235.798C1207.35 245.714 1233.03 246.303 1244.07 246.103C1244.02 250.794 1243.25 255.627 1242.01 260.293C1241.93 260.607 1241.92 260.935 1241.99 261.253C1242.05 261.571 1242.19 261.869 1242.39 262.126C1242.59 262.382 1242.85 262.589 1243.14 262.731C1243.43 262.874 1243.75 262.947 1244.08 262.946H1253.89C1254.21 262.945 1254.53 262.87 1254.83 262.728C1255.12 262.585 1255.37 262.378 1255.57 262.122C1255.77 261.867 1255.91 261.57 1255.98 261.253C1256.04 260.936 1256.03 260.609 1255.96 260.295C1254.8 255.646 1254.13 250.891 1253.95 246.105C1265.03 246.301 1290.6 245.694 1288.87 235.798Z" fill="#40521F"/>
<path d="M1506.95 212.589C1505.63 204.97 1487.13 208.117 1487.46 202.982C1487.79 197.848 1501.94 200.886 1502.38 195.928C1502.82 190.971 1489.75 193.315 1487.46 188.075C1485.77 184.214 1497.5 186.903 1493.4 180.416C1492.61 179.178 1491.82 177.949 1490.76 176.933C1489.41 175.636 1487.14 173.478 1485.34 171.886C1484.69 171.315 1483.86 171 1483 171C1482.14 171 1481.31 171.315 1480.66 171.886C1478.83 173.493 1476.53 175.688 1475.19 176.978C1474.15 177.978 1473.35 179.176 1472.61 180.416C1468.53 187.322 1480.73 184.3 1479.2 188.075C1477.05 193.377 1462.89 191.72 1464.21 196.522C1465.53 201.325 1477.92 198.067 1478.26 203.201C1478.6 208.336 1460.38 204.97 1459.05 212.589C1458.01 218.583 1473.43 218.939 1480.05 218.818C1480.02 221.654 1479.56 224.576 1478.82 227.396C1478.77 227.586 1478.76 227.785 1478.8 227.977C1478.84 228.169 1478.93 228.349 1479.05 228.504C1479.17 228.659 1479.32 228.784 1479.5 228.87C1479.67 228.956 1479.86 229.001 1480.06 229H1485.95C1486.14 228.999 1486.34 228.954 1486.51 228.868C1486.69 228.782 1486.84 228.657 1486.96 228.502C1487.08 228.348 1487.16 228.168 1487.2 227.977C1487.24 227.785 1487.24 227.587 1487.19 227.398C1486.49 224.587 1486.09 221.713 1485.99 218.819C1492.63 218.938 1507.99 218.571 1506.95 212.589Z" fill="#5F4900"/>
<path d="M1354.92 205.383C1352.91 193.955 1324.78 198.675 1325.28 190.973C1325.78 183.271 1347.3 187.829 1347.97 180.393C1348.64 172.956 1328.77 176.473 1325.28 168.612C1322.71 162.821 1340.56 166.854 1334.31 157.124C1333.12 155.268 1331.91 153.423 1330.3 151.9C1328.25 149.954 1324.8 146.717 1322.06 144.329C1321.07 143.472 1319.81 143 1318.5 143C1317.19 143 1315.92 143.472 1314.94 144.329C1312.16 146.739 1308.66 150.032 1306.62 151.968C1305.04 153.467 1303.82 155.264 1302.71 157.124C1296.49 167.483 1315.04 162.95 1312.72 168.612C1309.45 176.565 1287.91 174.079 1289.92 181.284C1291.93 188.488 1310.78 183.6 1311.29 191.302C1311.8 199.004 1284.09 193.955 1282.08 205.383C1280.5 214.374 1303.94 214.909 1314.02 214.727C1313.97 218.981 1313.27 223.364 1312.14 227.595C1312.07 227.879 1312.06 228.177 1312.12 228.465C1312.18 228.753 1312.3 229.024 1312.49 229.256C1312.67 229.488 1312.9 229.676 1313.17 229.805C1313.44 229.934 1313.73 230.001 1314.03 230H1322.98C1323.28 229.999 1323.57 229.931 1323.84 229.802C1324.11 229.673 1324.34 229.485 1324.52 229.253C1324.7 229.022 1324.83 228.752 1324.89 228.465C1324.95 228.178 1324.94 227.881 1324.87 227.596C1323.81 223.381 1323.2 219.069 1323.04 214.729C1333.15 214.907 1356.5 214.357 1354.92 205.383Z" fill="#40521F"/>
<path d="M1558.94 206.042C1557.4 197.241 1535.82 200.876 1536.2 194.945C1536.59 189.014 1553.1 192.524 1553.61 186.797C1554.12 181.07 1538.88 183.778 1536.2 177.724C1534.23 173.264 1547.92 176.371 1543.13 168.877C1542.21 167.447 1541.28 166.027 1540.05 164.854C1538.48 163.355 1535.83 160.862 1533.73 159.023C1532.97 158.364 1532 158 1531 158C1529.99 158 1529.02 158.364 1528.27 159.023C1526.14 160.88 1523.45 163.416 1521.89 164.906C1520.68 166.06 1519.74 167.445 1518.88 168.877C1514.11 176.855 1528.35 173.364 1526.56 177.724C1524.06 183.849 1507.53 181.935 1509.08 187.483C1510.62 193.031 1525.08 189.267 1525.47 195.198C1525.86 201.129 1504.6 197.241 1503.06 206.042C1501.85 212.966 1519.83 213.378 1527.56 213.238C1527.53 216.514 1526.99 219.889 1526.12 223.148C1526.07 223.367 1526.06 223.596 1526.1 223.818C1526.15 224.04 1526.25 224.248 1526.39 224.427C1526.53 224.606 1526.71 224.751 1526.91 224.85C1527.12 224.949 1527.34 225.001 1527.57 225H1534.44C1534.67 224.999 1534.89 224.947 1535.1 224.848C1535.3 224.748 1535.48 224.603 1535.62 224.425C1535.76 224.246 1535.85 224.039 1535.9 223.818C1535.95 223.597 1535.94 223.368 1535.89 223.149C1535.08 219.903 1534.61 216.582 1534.49 213.24C1542.24 213.377 1560.15 212.953 1558.94 206.042Z" fill="#40521F"/>
<path d="M1679.96 213.569C1678.77 206.87 1662.2 209.637 1662.49 205.122C1662.79 200.607 1675.47 203.279 1675.86 198.92C1676.26 194.561 1664.55 196.622 1662.49 192.014C1660.98 188.619 1671.49 190.984 1667.81 185.28C1667.11 184.191 1666.4 183.11 1665.45 182.217C1664.24 181.076 1662.21 179.179 1660.59 177.779C1660.02 177.277 1659.27 177 1658.5 177C1657.73 177 1656.98 177.277 1656.4 177.779C1654.77 179.192 1652.7 181.122 1651.5 182.257C1650.57 183.136 1649.85 184.189 1649.2 185.28C1645.53 191.352 1656.46 188.695 1655.09 192.014C1653.17 196.676 1640.48 195.219 1641.67 199.442C1642.85 203.665 1653.95 200.8 1654.25 205.315C1654.55 209.83 1638.23 206.87 1637.04 213.569C1636.11 218.84 1649.93 219.153 1655.86 219.047C1655.83 221.54 1655.42 224.11 1654.75 226.59C1654.71 226.757 1654.71 226.931 1654.74 227.1C1654.78 227.269 1654.85 227.428 1654.96 227.564C1655.07 227.7 1655.2 227.81 1655.36 227.886C1655.52 227.962 1655.69 228.001 1655.87 228H1661.14C1661.32 227.999 1661.49 227.96 1661.65 227.884C1661.8 227.808 1661.94 227.698 1662.05 227.562C1662.15 227.426 1662.23 227.268 1662.26 227.1C1662.3 226.932 1662.3 226.758 1662.25 226.591C1661.63 224.12 1661.27 221.592 1661.18 219.048C1667.13 219.152 1680.88 218.83 1679.96 213.569Z" fill="#003C03"/>
<path d="M1941.97 216.794C1941.31 212.985 1932.06 214.558 1932.23 211.991C1932.39 209.424 1939.47 210.943 1939.69 208.464C1939.91 205.985 1933.38 207.158 1932.23 204.537C1931.38 202.607 1937.25 203.951 1935.2 200.708C1934.81 200.089 1934.41 199.474 1933.88 198.967C1933.21 198.318 1932.07 197.239 1931.17 196.443C1930.85 196.157 1930.43 196 1930 196C1929.57 196 1929.15 196.157 1928.83 196.443C1927.92 197.246 1926.77 198.344 1926.09 198.989C1925.58 199.489 1925.17 200.088 1924.81 200.708C1922.76 204.161 1928.86 202.65 1928.1 204.537C1927.03 207.188 1919.94 206.36 1920.6 208.761C1921.26 211.163 1927.46 209.533 1927.63 212.101C1927.8 214.668 1918.69 212.985 1918.03 216.794C1917.51 219.791 1925.21 219.97 1928.53 219.909C1928.51 221.327 1928.28 222.788 1927.91 224.198C1927.89 224.293 1927.88 224.392 1927.9 224.488C1927.92 224.584 1927.96 224.675 1928.02 224.752C1928.08 224.829 1928.16 224.892 1928.25 224.935C1928.34 224.978 1928.43 225 1928.53 225H1931.47C1931.57 225 1931.67 224.977 1931.76 224.934C1931.84 224.891 1931.92 224.828 1931.98 224.751C1932.04 224.674 1932.08 224.584 1932.1 224.488C1932.12 224.393 1932.12 224.294 1932.09 224.199C1931.75 222.794 1931.55 221.356 1931.49 219.91C1934.82 219.969 1942.49 219.786 1941.97 216.794Z" fill="#40521F"/>
<path d="M1350.56 203.699C1349.53 202.234 1346.94 202.369 1346.19 203.984L1346.17 204.023C1345.57 192.429 1343.51 183.527 1337.38 182.086C1335.67 181.683 1333.92 182.749 1333.68 184.282C1332.48 192.081 1327.99 199.156 1328.45 204.081C1327.85 202.532 1326.43 201.157 1325.01 202.14C1324.64 202.399 1324.37 202.775 1324.24 203.207C1320.81 214.13 1324.53 220.866 1335.01 221.289C1334.43 227.761 1334.19 233.626 1334.48 238.325C1334.52 238.997 1334.97 239.568 1335.62 239.568H1340.54C1341.22 239.568 1341.81 238.967 1341.69 238.29C1340.78 233.318 1340.1 227.4 1340.39 220.989C1350.07 219.477 1357.01 212.866 1350.56 203.699Z" fill="#5F4900"/>
<path d="M1600.84 194.516C1599.53 192.658 1596.26 192.829 1595.31 194.877L1595.29 194.927C1594.53 180.225 1591.93 168.937 1584.18 167.109C1582.01 166.598 1579.8 167.95 1579.5 169.894C1577.98 179.784 1572.31 188.755 1572.88 195C1572.13 193.036 1570.33 191.293 1568.54 192.539C1568.08 192.868 1567.74 193.344 1567.57 193.892C1563.23 207.743 1567.94 216.285 1581.18 216.821C1580.44 225.028 1580.14 232.466 1580.51 238.424C1580.56 239.277 1581.13 240 1581.96 240H1588.17C1589.03 240 1589.78 239.239 1589.62 238.38C1588.47 232.075 1587.61 224.571 1587.98 216.442C1600.21 214.523 1608.98 206.14 1600.84 194.516Z" fill="#5F4900"/>
<path d="M1065.56 225C1065.42 225 1065.28 224.969 1065.15 224.908C1065.02 224.847 1064.91 224.758 1064.82 224.648C1064.74 224.538 1064.67 224.41 1064.64 224.273C1064.61 224.136 1064.62 223.995 1064.65 223.859C1065.15 221.866 1066.26 217.784 1064.72 215.841C1063.46 214.244 1061.65 215.333 1058.97 213.792C1055.84 211.986 1054.81 208.326 1054.39 206.817C1052.03 198.366 1060.76 182.309 1069.54 184.145C1074.52 185.185 1083.48 192.958 1081.79 206.488C1081.67 207.489 1079.75 213.147 1075.33 214.636C1072.93 215.441 1071.55 214.47 1070.41 215.69C1068.79 217.419 1070.22 221.758 1070.77 223.841C1070.8 223.977 1070.81 224.119 1070.78 224.257C1070.75 224.394 1070.69 224.524 1070.6 224.635C1070.51 224.746 1070.4 224.836 1070.28 224.898C1070.15 224.96 1070.01 224.992 1069.87 224.993L1065.56 225Z" fill="#5F4900"/>
<path d="M1405.69 234.964C1405.47 234.965 1405.26 234.916 1405.07 234.821C1404.87 234.726 1404.7 234.587 1404.57 234.415C1404.43 234.244 1404.34 234.044 1404.29 233.83C1404.25 233.617 1404.25 233.396 1404.3 233.184C1405.06 230.074 1406.76 223.707 1404.41 220.676C1402.48 218.184 1399.71 219.882 1395.61 217.478C1390.81 214.66 1389.24 208.952 1388.6 206.596C1384.99 193.412 1398.34 168.361 1411.79 171.226C1419.41 172.849 1433.12 184.975 1430.54 206.084C1430.34 207.645 1427.41 216.472 1420.64 218.795C1416.98 220.051 1414.87 218.536 1413.12 220.44C1410.64 223.138 1412.82 229.907 1413.66 233.155C1413.72 233.367 1413.72 233.589 1413.68 233.804C1413.63 234.019 1413.54 234.221 1413.41 234.394C1413.28 234.568 1413.11 234.708 1412.91 234.805C1412.71 234.902 1412.5 234.952 1412.28 234.953L1405.69 234.964Z" fill="#5F4900"/>
<path d="M1688.38 228C1688.23 228.001 1688.08 227.966 1687.95 227.899C1687.81 227.832 1687.69 227.735 1687.6 227.614C1687.5 227.493 1687.44 227.352 1687.41 227.202C1687.37 227.052 1687.38 226.897 1687.41 226.747C1687.94 224.56 1689.14 220.08 1687.49 217.948C1686.14 216.195 1684.2 217.39 1681.33 215.699C1677.97 213.716 1676.87 209.7 1676.42 208.043C1673.89 198.768 1683.24 181.144 1692.65 183.159C1697.99 184.301 1707.59 192.832 1705.78 207.682C1705.64 208.781 1703.59 214.99 1698.85 216.624C1696.29 217.508 1694.81 216.443 1693.58 217.782C1691.85 219.68 1693.38 224.442 1693.96 226.728C1694 226.877 1694.01 227.033 1693.97 227.184C1693.94 227.335 1693.88 227.477 1693.79 227.599C1693.69 227.721 1693.57 227.82 1693.44 227.888C1693.3 227.956 1693.15 227.992 1693 227.992L1688.38 228Z" fill="#40521F"/>
<path d="M1952.67 227C1952.56 227 1952.46 226.976 1952.36 226.928C1952.27 226.881 1952.18 226.811 1952.12 226.725C1952.05 226.64 1952.01 226.54 1951.98 226.433C1951.96 226.326 1951.96 226.215 1951.99 226.109C1952.36 224.554 1953.19 221.368 1952.04 219.852C1951.1 218.605 1949.74 219.455 1947.73 218.252C1945.38 216.842 1944.61 213.986 1944.29 212.808C1942.52 206.213 1949.07 193.68 1955.66 195.113C1959.39 195.925 1966.11 201.991 1964.84 212.552C1964.75 213.333 1963.31 217.749 1960 218.911C1958.2 219.539 1957.16 218.781 1956.31 219.734C1955.09 221.083 1956.16 224.47 1956.57 226.095C1956.6 226.201 1956.6 226.312 1956.58 226.42C1956.56 226.527 1956.52 226.628 1956.45 226.715C1956.39 226.802 1956.3 226.872 1956.21 226.92C1956.11 226.969 1956.01 226.994 1955.9 226.994L1952.67 227Z" fill="#5F4900"/>
<path d="M1143.76 190.273C1152.8 189.282 1156.15 181.752 1153.87 177.853C1151.88 170.129 1146.43 168.842 1138.99 171.233C1145.43 159.483 1140.4 155.299 1131.01 154C1118.61 154.827 1114.96 164.848 1121.96 171.97C1112.01 165.329 1099.67 178.099 1111.42 186.83C1104.57 187.442 1099.09 194.267 1107.07 201.704C1113.94 207.809 1119.89 206.435 1125.62 203.285C1125.3 220.687 1124.5 236.382 1124.01 248.784C1123.98 249.625 1124.82 250.319 1125.87 250.319H1133.88C1134.94 250.319 1135.78 249.609 1135.74 248.76C1134.98 236.064 1134.07 221.102 1133.64 205.118C1144.99 211.444 1153.06 209.663 1155.71 202.43C1158.3 196.846 1150.68 189.925 1143.76 190.273Z" fill="#275243"/>
<path d="M1366.64 182.273C1375.68 181.282 1379.04 173.752 1376.75 169.853C1374.77 162.129 1369.31 160.842 1361.88 163.233C1368.31 151.483 1363.29 147.299 1353.89 146C1341.49 146.827 1337.84 156.848 1344.85 163.97C1334.89 157.329 1322.55 170.099 1334.3 178.83C1327.46 179.442 1321.97 186.267 1329.95 193.704C1336.83 199.809 1342.78 198.435 1348.5 195.285C1348.19 212.687 1347.38 228.382 1346.89 240.784C1346.86 241.625 1347.7 242.319 1348.76 242.319H1356.76C1357.83 242.319 1358.67 241.609 1358.62 240.76C1357.86 228.064 1356.95 213.102 1356.52 197.118C1367.88 203.444 1375.95 201.663 1378.59 194.43C1381.18 188.846 1373.56 181.925 1366.64 182.273Z" fill="#275243"/>
<path d="M1510.72 211.712C1516 211.146 1517.96 206.847 1516.62 204.62C1515.47 200.21 1512.28 199.475 1507.94 200.84C1511.7 194.131 1508.77 191.742 1503.28 191C1496.04 191.472 1493.91 197.195 1498 201.261C1492.19 197.469 1484.99 204.761 1491.85 209.747C1487.85 210.096 1484.65 213.993 1489.31 218.24C1493.32 221.726 1496.79 220.941 1500.14 219.142C1499.95 229.08 1499.48 238.042 1499.2 245.124C1499.18 245.604 1499.67 246 1500.28 246H1504.96C1505.58 246 1506.07 245.595 1506.04 245.11C1505.6 237.86 1505.07 229.317 1504.82 220.19C1511.44 223.802 1516.15 222.785 1517.7 218.654C1519.21 215.466 1514.76 211.514 1510.72 211.712Z" fill="#275243"/>
<path d="M1868.13 200.57C1872.39 200.117 1873.97 196.678 1872.89 194.896C1871.96 191.368 1869.39 190.78 1865.89 191.872C1868.92 186.505 1866.55 184.593 1862.13 184C1856.29 184.378 1854.57 188.956 1857.87 192.209C1853.18 189.175 1847.38 195.009 1852.91 198.997C1849.69 199.277 1847.1 202.395 1850.86 205.792C1854.1 208.581 1856.9 207.953 1859.59 206.514C1859.44 214.464 1859.07 221.633 1858.83 227.299C1858.82 227.683 1859.22 228 1859.71 228H1863.48C1863.98 228 1864.38 227.676 1864.36 227.288C1864 221.488 1863.57 214.653 1863.37 207.352C1868.71 210.241 1872.51 209.428 1873.76 206.124C1874.98 203.573 1871.39 200.411 1868.13 200.57Z" fill="#5F4900"/>
<path d="M1945.31 206.181C1948.71 205.82 1949.97 203.085 1949.11 201.668C1948.37 198.861 1946.31 198.393 1943.51 199.262C1945.93 194.992 1944.04 193.472 1940.5 193C1935.83 193.3 1934.46 196.942 1937.1 199.53C1933.35 197.117 1928.7 201.757 1933.13 204.93C1930.55 205.152 1928.48 207.632 1931.49 210.335C1934.08 212.553 1936.32 212.054 1938.48 210.909C1938.36 217.233 1938.05 222.936 1937.87 227.442C1937.86 227.748 1938.17 228 1938.57 228H1941.58C1941.99 228 1942.3 227.742 1942.29 227.434C1942 222.82 1941.66 217.383 1941.49 211.575C1945.77 213.874 1948.81 213.227 1949.8 210.598C1950.78 208.569 1947.91 206.054 1945.31 206.181Z" fill="#275243"/>
<path d="M422.926 73.2211C418.668 67.013 414.19 61.8251 409.407 58.079C408.106 57.0431 407.205 55.5882 406.858 53.9624C406.51 52.3367 406.738 50.6409 407.502 49.1641V49.1641C408.444 47.3171 409.009 45.3013 409.164 43.2341C409.318 41.1668 409.06 39.0894 408.404 37.1229C407.747 35.1564 406.706 33.34 405.34 31.7797C403.974 30.2193 402.311 28.9462 400.448 28.0343L399.55 27.5963C395.395 25.5609 390.609 25.227 386.211 26.6659L385.811 26.7965C383.665 27.498 381.697 28.6555 380.041 30.1895C378.386 31.7235 377.082 33.5975 376.22 35.6828C375.358 37.7681 374.959 40.0152 375.048 42.2696C375.138 44.5239 375.715 46.7322 376.74 48.7424L376.844 48.9465C377.597 50.4356 377.814 52.1383 377.459 53.7687C377.104 55.399 376.199 56.8576 374.895 57.8995C367.779 63.6397 363.254 70.4136 359.408 79.4673C350.424 100.643 369.33 114.904 386.377 126.052C385.664 138.735 384.529 150.216 383.11 159.677C382.972 160.61 384.183 161.413 385.729 161.413H399.58C401.113 161.413 402.321 160.621 402.202 159.696C400.865 149.326 399.988 137.204 399.447 124.232C419.074 109.104 437.721 94.8025 422.926 73.2211Z" fill="#40521F"/>
<path d="M688.07 105.322C683.321 92.845 660.915 88.895 647.967 95.645C637.647 101.03 633.366 113.195 632.483 112.718C631.558 112.211 640.759 100.568 640.504 87.1065C640.248 73.4834 630.292 57.1678 614.154 51.8178C595.476 45.6293 572.955 55.5986 563.738 76.2911C557.607 95.0027 557.607 95.772 561.447 120.188C546.032 124.599 535.213 136.726 540.249 157.142C549.152 177.446 580 186.319 600.122 176.807C600.671 180.196 601.364 186.85 599.692 192.777C597.954 198.93 595.968 213.523 595.047 220.769C594.977 221.3 595.023 221.84 595.181 222.352C595.339 222.864 595.605 223.336 595.963 223.737C596.32 224.138 596.76 224.458 597.252 224.676C597.744 224.894 598.278 225.004 598.817 225L621.377 224.834C621.919 224.83 622.454 224.71 622.945 224.482C623.436 224.255 623.872 223.924 624.223 223.514C624.574 223.104 624.832 222.623 624.98 222.105C625.127 221.587 625.161 221.044 625.078 220.511C623.673 211.488 620.715 190.192 621.567 175.657L626.754 175.915C644.831 187.746 663.652 184.465 669.149 175.346C673.217 168.588 671.216 156.572 664.566 150.869C658.423 145.607 649.771 146.972 649.67 145.176C649.55 143.057 661.748 143.253 672.014 136.642C681.947 130.23 692.174 116.099 688.07 105.322Z" fill="#40521F"/>
<path d="M104.262 68.2216C99.347 55.3162 76.1615 51.2305 62.7621 58.2123C52.0826 63.7819 47.6522 76.3651 46.7389 75.8718C45.7815 75.3466 55.3033 63.3045 55.0389 49.3806C54.7745 35.2897 44.4716 18.414 27.7714 12.8802C8.44342 6.47922 -14.8623 16.7908 -24.4001 38.1938C-30.7453 57.548 -30.7453 58.3436 -26.7716 83.5975C-42.7227 88.1606 -53.9189 100.704 -48.7074 121.821C-39.494 142.822 -7.57178 152 13.2504 142.161C13.8192 145.666 14.5362 152.549 12.8057 158.679C11.0071 165.044 8.95216 180.138 7.99878 187.633C7.9266 188.182 7.97382 188.74 8.13731 189.27C8.3008 189.799 8.57673 190.288 8.94649 190.703C9.31625 191.117 9.77128 191.449 10.2808 191.674C10.7904 191.899 11.3427 192.013 11.9004 192.009L35.2462 191.838C35.807 191.833 36.3603 191.709 36.8685 191.474C37.3766 191.238 37.8277 190.896 38.1911 190.472C38.5544 190.048 38.8215 189.551 38.9742 189.015C39.1269 188.479 39.1615 187.917 39.0758 187.366C37.6217 178.033 34.5613 156.006 35.4425 140.972L40.8103 141.238C59.5174 153.475 78.9936 150.082 84.6818 140.65C88.8919 133.66 86.8209 121.232 79.939 115.332C73.5817 109.89 64.6288 111.302 64.5246 109.444C64.4005 107.252 77.0227 107.455 87.6461 100.616C97.925 93.9848 108.508 79.3687 104.262 68.2216Z" fill="#003C03"/>
<path d="M426.783 149.069C425.763 113.771 407.432 102.057 379.807 103.039C366.384 53.607 313.175 46.2746 284.527 83.5366C268.152 71.9591 214.74 62.3568 217.961 131.25C195.413 129.847 186 149.602 186.021 160.053C184.948 207.29 224.934 195.067 239.97 191.678C249.929 199.161 265.694 198.87 278.311 196.94C287.366 212.068 288.365 228.371 283.689 244.653C283.495 245.307 283.456 245.997 283.575 246.668C283.694 247.34 283.967 247.974 284.374 248.521C284.781 249.069 285.309 249.513 285.917 249.821C286.525 250.128 287.197 250.289 287.878 250.291H340.793C341.433 250.292 342.065 250.152 342.644 249.881C343.224 249.61 343.737 249.215 344.148 248.723C344.558 248.232 344.855 247.657 345.019 247.038C345.182 246.419 345.208 245.771 345.094 245.141C341.76 226.898 344.663 209.633 354.637 194.502C361.823 192.267 368.561 188.948 374.454 184.328C383.569 200.501 399.481 205.213 419.814 202.399C447.715 196.782 461.619 163.495 426.783 149.069ZM312.001 212.594L300.26 192.923C309.538 196.025 319.228 197.719 329.007 197.947L319.608 212.7C319.201 213.346 318.634 213.877 317.963 214.241C317.292 214.606 316.538 214.791 315.775 214.781C315.011 214.77 314.263 214.564 313.602 214.181C312.942 213.798 312.39 213.252 312.001 212.594Z" fill="#003C03"/>
<path d="M466.019 69.5358C463.962 64.0971 454.258 62.3753 448.65 65.3176C444.18 67.6648 442.326 72.9677 441.943 72.7598C441.543 72.5385 445.528 67.4636 445.417 61.5957C445.307 55.6573 440.994 48.5454 434.005 46.2133C425.916 43.5157 416.161 47.8613 412.169 56.8812C409.514 65.0376 409.514 65.3729 411.177 76.0157C404.501 77.9387 399.815 83.2249 401.996 92.124C405.852 100.975 419.213 104.842 427.927 100.696C428.165 102.173 428.466 105.074 427.741 107.657C426.988 110.34 426.128 116.701 425.729 119.859C425.699 120.091 425.719 120.326 425.787 120.549C425.856 120.772 425.971 120.978 426.126 121.153C426.281 121.328 426.471 121.467 426.685 121.562C426.898 121.657 427.129 121.705 427.362 121.704L437.133 121.631C437.368 121.63 437.6 121.577 437.812 121.478C438.025 121.379 438.214 121.235 438.366 121.056C438.518 120.877 438.63 120.668 438.694 120.442C438.757 120.216 438.772 119.979 438.736 119.747C438.128 115.814 436.847 106.531 437.215 100.195L439.462 100.307C447.292 105.464 455.443 104.034 457.824 100.059C459.586 97.1135 458.719 91.8759 455.839 89.3896C453.178 87.0961 449.431 87.6912 449.387 86.9083C449.335 85.9845 454.618 86.07 459.064 83.188C463.366 80.3932 467.796 74.2335 466.019 69.5358Z" fill="#003C03"/>
<path d="M992.863 163.434C989.993 158.586 980.177 167.308 977.238 167.632C987.043 158.054 986.928 153.454 982.221 151.158C975.988 149.911 971.856 156.187 968.63 165.701C968.873 155.882 968.279 147.284 961.252 148.047C959.46 148.249 957.786 149.045 956.496 150.309C952.203 154.507 954.274 160.401 960.023 167.28C952.925 162.534 946.283 158.985 942.559 163.089C941.182 164.608 940.746 166.756 941.138 168.772C942.081 173.58 946.684 174.37 953.907 172.283C949.74 174.482 947.131 177.636 945.896 181.636C945.084 184.269 948.095 186.494 950.394 184.985C954.133 182.533 958.038 179.054 961.901 179.681C963.738 196.524 960.87 213.512 957.701 229.993C957.499 231.044 958.372 232 959.44 232H974.322C975.419 232 976.291 230.997 976.049 229.926C972.464 214.035 971.19 196.659 972.482 178.851C980.177 184.231 986.398 186.495 989.017 181.153C990.452 176.305 980.938 176.456 977.465 172.283C980.631 172.067 994.523 174.946 992.863 163.434Z" fill="#5F4900"/>
<path d="M1029.4 195.455C1026.89 191.228 1018.3 198.832 1015.72 199.115C1024.31 190.765 1024.21 186.754 1020.08 184.753C1014.63 183.666 1011.01 189.137 1008.19 197.431C1008.4 188.871 1007.88 181.376 1001.73 182.041C1000.16 182.217 998.695 182.911 997.565 184.013C993.807 187.673 995.62 192.811 1000.65 198.807C994.439 194.67 988.624 191.576 985.365 195.155C984.16 196.478 983.777 198.351 984.12 200.108C984.946 204.3 988.976 204.988 995.299 203.169C991.651 205.086 989.367 207.836 988.286 211.323C987.575 213.618 990.211 215.558 992.223 214.243C995.496 212.105 998.915 209.072 1002.3 209.619C1003.9 224.302 1001.39 239.111 998.62 253.479C998.443 254.395 999.208 255.229 1000.14 255.229H1013.17C1014.13 255.229 1014.89 254.354 1014.68 253.42C1011.54 239.568 1010.43 224.419 1011.56 208.895C1018.3 213.585 1023.74 215.559 1026.03 210.902C1027.29 206.676 1018.96 206.807 1015.92 203.169C1018.69 202.981 1030.85 205.491 1029.4 195.455Z" fill="#40521F"/>
<path d="M1046.3 211.425C1044.98 207.946 1038.77 206.845 1035.19 208.727C1032.33 210.228 1031.14 213.62 1030.9 213.487C1030.64 213.346 1033.19 210.099 1033.12 206.346C1033.05 202.548 1030.29 197.999 1025.82 196.507C1020.65 194.781 1014.41 197.561 1011.85 203.33C1010.15 208.548 1010.15 208.762 1011.22 215.57C1006.95 216.8 1003.95 220.181 1005.35 225.873C1007.81 231.534 1016.36 234.008 1021.93 231.356C1022.09 232.301 1022.28 234.156 1021.81 235.809C1021.33 237.525 1020.78 241.593 1020.53 243.614C1020.51 243.762 1020.52 243.912 1020.56 244.055C1020.61 244.198 1020.68 244.33 1020.78 244.441C1020.88 244.553 1021 244.642 1021.14 244.703C1021.27 244.764 1021.42 244.795 1021.57 244.793L1027.82 244.747C1027.97 244.746 1028.12 244.713 1028.26 244.649C1028.39 244.586 1028.51 244.493 1028.61 244.379C1028.71 244.265 1028.78 244.131 1028.82 243.986C1028.86 243.842 1028.87 243.69 1028.85 243.542C1028.46 241.026 1027.64 235.088 1027.87 231.036L1029.31 231.108C1034.32 234.406 1039.53 233.491 1041.06 230.949C1042.18 229.065 1041.63 225.714 1039.79 224.124C1038.08 222.657 1035.69 223.038 1035.66 222.537C1035.63 221.946 1039.01 222.001 1041.85 220.157C1044.6 218.37 1047.43 214.43 1046.3 211.425Z" fill="#40521F"/>
<path d="M353.259 37.5214C346.252 25.7353 322.285 46.9395 315.107 47.7288C339.048 24.4424 338.769 13.2584 327.275 7.67839C312.055 4.64679 301.965 19.9035 294.09 43.0334C294.682 19.1617 293.231 -1.73964 276.073 0.114707C271.698 0.606513 267.611 2.54131 264.461 5.61309C253.979 15.8205 259.034 30.1483 273.072 46.8714C255.74 35.3336 239.522 26.705 230.43 36.6844C227.068 40.3761 226.002 45.5989 226.959 50.4985C229.262 62.1893 240.503 64.1083 258.138 59.0352C247.963 64.3805 241.593 72.0497 238.578 81.7739C236.596 88.174 243.947 93.5839 249.561 89.916C258.69 83.9549 268.225 75.4964 277.657 77.0207C282.143 117.969 275.14 159.269 267.404 199.336C266.91 201.891 269.042 204.215 271.648 204.215H307.988C310.665 204.215 312.794 201.776 312.205 199.173C303.451 160.541 300.341 118.296 303.495 75.003C322.285 88.0821 337.474 93.5873 343.868 80.6001C347.373 68.8139 324.141 69.1814 315.663 59.0352C323.392 58.5113 357.313 65.5101 353.259 37.5214Z" fill="#275243"/>
<path d="M707.256 146.586C704.072 142.157 696.067 142.566 693.743 147.446L693.686 147.566C691.835 112.523 685.449 85.6166 666.486 81.2586C661.186 80.0414 655.77 83.2648 655.039 87.8969C651.315 111.471 637.442 132.855 638.85 147.739C636.995 143.058 632.608 138.903 628.214 141.875C627.084 142.657 626.25 143.792 625.844 145.098C615.212 178.113 626.737 198.475 659.154 199.752C657.352 219.314 656.61 237.042 657.503 251.243C657.632 253.276 659.017 255 661.054 255H676.27C678.367 255 680.195 253.185 679.809 251.138C676.989 236.111 674.889 218.225 675.79 198.847C705.73 194.275 727.196 174.292 707.256 146.586Z" fill="#5F4900"/>
<path d="M525.419 102.872C523.409 98.8595 514.358 80.4668 495.85 75.669C487.01 73.379 475.256 73.9861 467.198 76.7216C465.476 77.343 463.722 77.8696 461.942 78.2989C456.821 79.5066 447.37 86.1291 440.124 91.1315C434.971 94.7127 428.634 96.1666 422.434 95.1902C373.8 87.3434 357.72 119.552 361.346 138.747C371.368 176.842 429.77 172.047 432.852 171.269C430.4 180.858 427.13 209.371 426.509 219.597C426.481 220.07 426.55 220.545 426.711 220.991C426.872 221.437 427.123 221.846 427.448 222.192C427.772 222.538 428.164 222.815 428.599 223.005C429.034 223.194 429.503 223.293 429.977 223.296H452.564C453.042 223.296 453.515 223.199 453.953 223.009C454.392 222.819 454.787 222.541 455.114 222.193C455.44 221.844 455.692 221.432 455.853 220.982C456.014 220.532 456.08 220.054 456.049 219.577C455.557 212.162 453.897 195.489 454.419 186.507C454.815 179.67 455.079 174.875 455.29 171.513C462.711 173.077 484.558 170.394 494.656 167.118C495.883 166.718 526.356 158.377 528.973 131.243C530.59 114.2 527.656 107.373 525.419 102.872Z" fill="#275243"/>
<path d="M138.563 172.612C136.554 168.6 127.503 150.207 108.995 145.409C100.155 143.119 88.4009 143.726 80.343 146.462C78.621 147.083 76.8662 147.61 75.0865 148.039C69.9653 149.247 60.5149 155.869 53.2687 160.872C48.1151 164.453 41.7781 165.907 35.5788 164.93C-13.0559 157.084 -29.1355 189.292 -25.5091 208.487C-15.4878 246.582 42.9141 241.788 45.9961 241.009C43.5444 250.598 40.2743 279.111 39.654 289.337C39.6257 289.811 39.6943 290.285 39.8556 290.731C40.0169 291.178 40.2675 291.586 40.5921 291.933C40.9167 292.279 41.3084 292.555 41.7434 292.745C42.1784 292.934 42.6475 293.033 43.122 293.036H65.7087C66.1865 293.036 66.6594 292.939 67.098 292.749C67.5365 292.559 67.9314 292.281 68.2582 291.933C68.5849 291.584 68.8365 291.172 68.9973 290.722C69.1582 290.272 69.2248 289.794 69.1932 289.317C68.7015 281.903 67.0418 265.229 67.5631 256.247C67.9591 249.41 68.2231 244.616 68.4342 241.253C75.8553 242.817 97.7029 240.135 107.8 236.858C109.028 236.459 139.501 228.117 142.117 200.983C143.734 183.94 140.801 177.113 138.563 172.612Z" fill="#275243"/>
<path d="M176.164 148.034C175.295 117.902 159.676 107.902 136.137 108.741C124.7 66.5425 79.3622 60.2832 54.9518 92.0922C40.9992 82.209 -4.51186 74.0119 -1.76674 132.823C-20.9796 131.625 -28.9999 148.49 -28.982 157.411C-29.896 197.735 4.17456 187.301 16.9861 184.408C25.4724 190.796 38.9053 190.547 49.6557 188.9C57.3714 201.814 58.2227 215.732 54.2379 229.631C54.0727 230.189 54.0394 230.778 54.1407 231.351C54.2421 231.924 54.4752 232.466 54.8216 232.933C55.168 233.4 55.6182 233.78 56.1365 234.042C56.6548 234.304 57.2269 234.442 57.8075 234.444H102.894C103.44 234.444 103.978 234.325 104.472 234.093C104.966 233.862 105.403 233.525 105.753 233.105C106.103 232.686 106.356 232.195 106.495 231.666C106.635 231.138 106.657 230.585 106.559 230.047C103.719 214.474 106.192 199.736 114.69 186.819C120.814 184.911 126.555 182.078 131.576 178.133C139.343 191.94 152.901 195.962 170.226 193.56C194 188.765 205.847 160.35 176.164 148.034ZM78.3615 202.263L68.3578 185.471C76.263 188.119 84.5193 189.565 92.8518 189.76L84.8435 202.353C84.4963 202.905 84.0137 203.358 83.4418 203.669C82.8699 203.98 82.2279 204.139 81.5774 204.13C80.9268 204.121 80.2894 203.945 79.7264 203.618C79.1633 203.291 78.6933 202.825 78.3615 202.263V202.263Z" fill="#003C03"/>
<path d="M324.851 216.159C318.433 179.309 228.596 194.529 230.197 169.694C231.799 144.858 300.522 159.555 302.66 135.575C304.797 111.596 241.347 122.935 230.197 97.5872C221.986 78.9142 278.979 91.9205 259.026 60.5454C255.22 54.5576 251.357 48.6093 246.23 43.6974C239.689 37.4224 228.663 26.9847 219.899 19.2845C216.761 16.5233 212.721 15 208.539 15C204.356 15 200.317 16.5233 197.178 19.2845C188.312 27.0579 177.129 37.6759 170.61 43.9171C165.574 48.7501 161.677 54.5464 158.113 60.5454C138.262 93.9484 197.511 79.331 190.083 97.5872C179.656 123.234 110.87 115.218 117.288 138.448C123.706 161.678 183.897 145.917 185.527 170.753C187.156 195.588 98.6778 179.309 92.2431 216.159C87.1957 245.152 162.066 246.875 194.24 246.29C194.087 260.006 191.854 274.139 188.245 287.781C188.006 288.699 187.981 289.659 188.172 290.588C188.363 291.517 188.765 292.39 189.346 293.139C189.928 293.889 190.675 294.495 191.528 294.91C192.381 295.326 193.318 295.541 194.268 295.538H222.866C223.813 295.535 224.747 295.317 225.596 294.9C226.446 294.482 227.19 293.877 227.77 293.13C228.351 292.383 228.753 291.513 228.947 290.588C229.141 289.662 229.121 288.704 228.889 287.787C225.518 274.194 223.563 260.29 223.058 246.295C255.333 246.87 329.887 245.095 324.851 216.159Z" fill="#40521F"/>
<path d="M1177.7 244.537C1176.14 235.568 1154.27 239.272 1154.66 233.227C1155.05 227.183 1171.78 230.76 1172.3 224.923C1172.82 219.087 1157.38 221.847 1154.66 215.677C1152.67 211.132 1166.54 214.298 1161.68 206.662C1160.75 205.204 1159.81 203.756 1158.57 202.561C1156.97 201.034 1154.29 198.493 1152.16 196.619C1151.39 195.947 1150.41 195.576 1149.39 195.576C1148.37 195.576 1147.39 195.947 1146.63 196.619C1144.47 198.511 1141.75 201.095 1140.16 202.614C1138.93 203.791 1137.99 205.201 1137.12 206.662C1132.29 214.792 1146.71 211.234 1144.9 215.677C1142.36 221.919 1125.62 219.968 1127.18 225.622C1128.74 231.277 1143.39 227.44 1143.79 233.485C1144.19 239.53 1122.65 235.568 1121.09 244.537C1119.86 251.593 1138.08 252.013 1145.91 251.87C1145.87 255.209 1145.33 258.649 1144.45 261.969C1144.39 262.192 1144.39 262.426 1144.43 262.652C1144.48 262.878 1144.58 263.091 1144.72 263.273C1144.86 263.455 1145.04 263.603 1145.25 263.704C1145.46 263.805 1145.69 263.858 1145.92 263.857H1152.88C1153.11 263.856 1153.34 263.803 1153.54 263.702C1153.75 263.6 1153.93 263.453 1154.07 263.271C1154.21 263.089 1154.31 262.877 1154.36 262.652C1154.41 262.427 1154.4 262.194 1154.35 261.97C1153.52 258.662 1153.05 255.278 1152.93 251.872C1160.78 252.012 1178.93 251.58 1177.7 244.537Z" fill="#40521F"/>
<path d="M1054.37 210.985C1053.12 203.844 1035.61 206.793 1035.93 201.98C1036.24 197.167 1049.63 200.015 1050.04 195.368C1050.46 190.721 1038.1 192.918 1035.93 188.006C1034.33 184.387 1045.43 186.908 1041.54 180.827C1040.8 179.666 1040.05 178.514 1039.05 177.562C1037.77 176.346 1035.63 174.323 1033.92 172.83C1033.31 172.295 1032.52 172 1031.71 172C1030.89 172 1030.1 172.295 1029.49 172.83C1027.76 174.337 1025.59 176.395 1024.32 177.604C1023.33 178.541 1022.58 179.664 1021.88 180.827C1018.01 187.301 1029.56 184.468 1028.11 188.006C1026.08 192.976 1012.68 191.423 1013.93 195.925C1015.18 200.427 1026.9 197.372 1027.22 202.185C1027.54 206.999 1010.3 203.844 1009.05 210.985C1008.06 216.604 1022.65 216.938 1028.92 216.825C1028.89 219.483 1028.45 222.222 1027.75 224.866C1027.71 225.044 1027.7 225.23 1027.74 225.41C1027.77 225.59 1027.85 225.759 1027.97 225.904C1028.08 226.05 1028.23 226.167 1028.39 226.248C1028.56 226.328 1028.74 226.37 1028.93 226.369H1034.5C1034.68 226.369 1034.86 226.327 1035.03 226.246C1035.19 226.165 1035.34 226.048 1035.45 225.903C1035.57 225.758 1035.64 225.589 1035.68 225.41C1035.72 225.231 1035.72 225.045 1035.67 224.867C1035.01 222.233 1034.63 219.538 1034.53 216.826C1040.82 216.937 1055.35 216.593 1054.37 210.985Z" fill="#003C03"/>
<path d="M898.928 208.232C897.028 197.382 870.435 201.863 870.909 194.55C871.383 187.237 891.726 191.565 892.359 184.504C892.992 177.443 874.209 180.782 870.909 173.318C868.478 167.82 885.349 171.65 879.443 162.411C878.316 160.648 877.172 158.896 875.655 157.45C873.718 155.602 870.455 152.529 867.861 150.262C866.931 149.449 865.736 149 864.498 149C863.259 149 862.064 149.449 861.135 150.262C858.51 152.551 855.2 155.677 853.27 157.515C851.779 158.938 850.626 160.645 849.571 162.411C843.694 172.247 861.233 167.943 859.034 173.318C855.948 180.87 835.586 178.51 837.486 185.35C839.386 192.19 857.203 187.549 857.686 194.862C858.168 202.175 831.977 197.382 830.072 208.232C828.578 216.769 850.741 217.277 860.265 217.104C860.22 221.143 859.559 225.305 858.49 229.322C858.419 229.592 858.412 229.875 858.469 230.148C858.525 230.422 858.644 230.679 858.816 230.899C858.989 231.12 859.209 231.298 859.462 231.421C859.715 231.543 859.992 231.607 860.273 231.606H868.739C869.019 231.605 869.295 231.541 869.547 231.418C869.798 231.295 870.019 231.117 870.19 230.897C870.362 230.677 870.481 230.421 870.539 230.148C870.596 229.875 870.59 229.593 870.522 229.323C869.524 225.321 868.945 221.227 868.795 217.106C878.349 217.275 900.419 216.753 898.928 208.232Z" fill="#275243"/>
<path d="M353.99 324.121C353.304 324.123 352.626 323.969 352.009 323.67C351.391 323.371 350.85 322.935 350.426 322.396C350.002 321.856 349.707 321.227 349.562 320.556C349.417 319.885 349.427 319.19 349.592 318.523C351.987 308.747 357.384 288.725 349.948 279.195C343.833 271.36 335.054 276.699 322.087 269.142C306.89 260.28 301.938 242.33 299.895 234.925C288.463 193.471 330.736 114.703 373.286 123.711C397.401 128.814 440.807 166.941 432.613 233.313C432.011 238.223 422.724 265.977 401.313 273.28C389.715 277.23 383.024 272.467 377.484 278.454C369.651 286.935 376.561 308.22 379.21 318.434C379.383 319.101 379.401 319.799 379.263 320.474C379.125 321.149 378.834 321.784 378.413 322.329C377.992 322.875 377.452 323.317 376.834 323.621C376.216 323.925 375.536 324.084 374.848 324.085L353.99 324.121Z" fill="#5F4900"/>
<path d="M1208.64 203.275C1206.13 199.049 1197.54 206.652 1194.97 206.935C1203.55 198.585 1203.45 194.575 1199.33 192.574C1193.87 191.487 1190.26 196.957 1187.43 205.251C1187.64 196.691 1187.12 189.197 1180.97 189.861C1179.4 190.038 1177.94 190.732 1176.81 191.833C1173.05 195.493 1174.86 200.631 1179.9 206.628C1173.68 202.49 1167.87 199.396 1164.61 202.975C1163.4 204.299 1163.02 206.171 1163.36 207.928C1164.19 212.121 1168.22 212.809 1174.54 210.99C1170.89 212.906 1168.61 215.656 1167.53 219.143C1166.82 221.438 1169.45 223.378 1171.47 222.063C1174.74 219.925 1178.16 216.892 1181.54 217.439C1183.15 232.122 1180.64 246.932 1177.86 261.299C1177.69 262.216 1178.45 263.049 1179.39 263.049H1192.41C1193.37 263.049 1194.14 262.174 1193.93 261.241C1190.79 247.388 1189.67 232.24 1190.8 216.715C1197.54 221.405 1202.99 223.379 1205.28 218.722C1206.53 214.496 1198.21 214.628 1195.17 210.99C1197.94 210.802 1210.1 213.311 1208.64 203.275Z" fill="#275243"/>
<path d="M1575.4 187.455C1572.89 183.228 1564.3 190.832 1561.72 191.115C1570.31 182.765 1570.21 178.754 1566.08 176.753C1560.63 175.666 1557.01 181.137 1554.19 189.431C1554.4 180.871 1553.88 173.376 1547.73 174.041C1546.16 174.217 1544.69 174.911 1543.57 176.013C1539.81 179.673 1541.62 184.811 1546.65 190.807C1540.44 186.67 1534.62 183.576 1531.36 187.155C1530.16 188.478 1529.78 190.351 1530.12 192.108C1530.95 196.3 1534.98 196.988 1541.3 195.169C1537.65 197.086 1535.37 199.836 1534.29 203.323C1533.58 205.618 1536.21 207.558 1538.22 206.243C1541.5 204.105 1544.91 201.072 1548.3 201.619C1549.9 216.302 1547.39 231.111 1544.62 245.479C1544.44 246.395 1545.21 247.229 1546.14 247.229H1559.17C1560.13 247.229 1560.89 246.354 1560.68 245.42C1557.54 231.568 1556.43 216.419 1557.56 200.895C1564.3 205.585 1569.74 207.559 1572.03 202.902C1573.29 198.676 1564.96 198.807 1561.92 195.169C1564.69 194.981 1576.85 197.491 1575.4 187.455Z" fill="#275243"/>
<path d="M1784.4 175.455C1781.89 171.228 1773.3 178.832 1770.72 179.115C1779.31 170.765 1779.21 166.754 1775.08 164.753C1769.63 163.666 1766.01 169.137 1763.19 177.431C1763.4 168.871 1762.88 161.376 1756.73 162.041C1755.16 162.217 1753.69 162.911 1752.57 164.013C1748.81 167.673 1750.62 172.811 1755.65 178.807C1749.44 174.67 1743.62 171.576 1740.36 175.155C1739.16 176.478 1738.78 178.351 1739.12 180.108C1739.95 184.3 1743.98 184.988 1750.3 183.169C1746.65 185.086 1744.37 187.836 1743.29 191.323C1742.58 193.618 1745.21 195.558 1747.22 194.243C1750.5 192.105 1753.91 189.072 1757.3 189.619C1758.9 204.302 1756.39 219.111 1753.62 233.479C1753.44 234.395 1754.21 235.229 1755.14 235.229H1768.17C1769.13 235.229 1769.89 234.354 1769.68 233.42C1766.54 219.568 1765.43 204.419 1766.56 188.895C1773.3 193.585 1778.74 195.559 1781.03 190.902C1782.29 186.676 1773.96 186.807 1770.92 183.169C1773.69 182.981 1785.85 185.491 1784.4 175.455Z" fill="#275243"/>
<path d="M1918.93 190.084C1917.44 187.545 1912.34 192.114 1910.82 192.284C1915.91 187.266 1915.85 184.857 1913.4 183.654C1910.17 183.001 1908.02 186.288 1906.35 191.272C1906.47 186.129 1906.16 181.625 1902.52 182.025C1901.58 182.131 1900.72 182.548 1900.05 183.209C1897.82 185.409 1898.89 188.496 1901.88 192.099C1898.19 189.613 1894.74 187.754 1892.81 189.904C1892.09 190.699 1891.87 191.825 1892.07 192.88C1892.56 195.399 1894.95 195.813 1898.7 194.72C1896.54 195.871 1895.18 197.524 1894.54 199.619C1894.12 200.998 1895.68 202.163 1896.88 201.373C1898.82 200.089 1900.85 198.266 1902.85 198.595C1903.81 207.418 1902.32 216.316 1900.67 224.949C1900.57 225.499 1901.02 226 1901.57 226H1909.3C1909.87 226 1910.32 225.474 1910.2 224.914C1908.34 216.59 1907.68 207.488 1908.35 198.16C1912.34 200.978 1915.57 202.164 1916.93 199.366C1917.68 196.827 1912.74 196.906 1910.93 194.72C1912.58 194.607 1919.79 196.115 1918.93 190.084Z" fill="#275243"/>
<path d="M1413.4 166.455C1410.89 162.228 1402.3 169.832 1399.72 170.115C1408.31 161.765 1408.21 157.754 1404.08 155.753C1398.63 154.666 1395.01 160.137 1392.19 168.431C1392.4 159.871 1391.88 152.376 1385.73 153.041C1384.16 153.217 1382.69 153.911 1381.57 155.013C1377.81 158.673 1379.62 163.811 1384.65 169.807C1378.44 165.67 1372.62 162.576 1369.36 166.155C1368.16 167.478 1367.78 169.351 1368.12 171.108C1368.95 175.3 1372.98 175.988 1379.3 174.169C1375.65 176.086 1373.37 178.836 1372.29 182.323C1371.58 184.618 1374.21 186.558 1376.22 185.243C1379.5 183.105 1382.91 180.072 1386.3 180.619C1387.9 195.302 1385.39 210.111 1382.62 224.479C1382.44 225.395 1383.21 226.229 1384.14 226.229H1397.17C1398.13 226.229 1398.89 225.354 1398.68 224.42C1395.54 210.568 1394.43 195.419 1395.56 179.895C1402.3 184.585 1407.74 186.559 1410.03 181.902C1411.29 177.676 1402.96 177.807 1399.92 174.169C1402.69 173.981 1414.85 176.491 1413.4 166.455Z" fill="#275243"/>
<path d="M1807.81 204.748C1806.86 202.324 1802.38 201.557 1799.79 202.868C1797.73 203.914 1796.87 206.278 1796.7 206.185C1796.51 206.087 1798.35 203.825 1798.3 201.209C1798.25 198.562 1796.26 195.393 1793.03 194.353C1789.3 193.151 1784.79 195.088 1782.95 199.108C1781.72 202.743 1781.72 202.893 1782.49 207.636C1779.41 208.494 1777.24 210.85 1778.25 214.816C1780.03 218.761 1786.2 220.485 1790.22 218.637C1790.33 219.295 1790.47 220.588 1790.14 221.739C1789.79 222.935 1789.39 225.77 1789.21 227.178C1789.2 227.281 1789.2 227.386 1789.24 227.486C1789.27 227.585 1789.32 227.677 1789.39 227.755C1789.46 227.833 1789.55 227.895 1789.65 227.937C1789.75 227.979 1789.86 228.001 1789.96 228L1794.48 227.968C1794.58 227.967 1794.69 227.944 1794.79 227.899C1794.89 227.855 1794.97 227.791 1795.04 227.711C1795.11 227.632 1795.17 227.538 1795.2 227.438C1795.23 227.337 1795.23 227.231 1795.22 227.128C1794.93 225.375 1794.34 221.237 1794.51 218.413L1795.55 218.463C1799.17 220.762 1802.93 220.125 1804.03 218.353C1804.84 217.04 1804.44 214.706 1803.11 213.597C1801.88 212.575 1800.15 212.84 1800.13 212.491C1800.11 212.08 1802.55 212.118 1804.6 210.833C1806.59 209.588 1808.63 206.842 1807.81 204.748Z" fill="#003C03"/>
<path d="M1979.86 210.903C1979.17 209.121 1975.88 208.556 1973.98 209.521C1972.47 210.29 1971.84 212.028 1971.71 211.96C1971.58 211.887 1972.92 210.224 1972.89 208.301C1972.85 206.355 1971.39 204.024 1969.02 203.26C1966.28 202.376 1962.98 203.8 1961.63 206.756C1960.73 209.429 1960.73 209.539 1961.29 213.027C1959.03 213.657 1957.44 215.389 1958.18 218.306C1959.49 221.207 1964.01 222.474 1966.96 221.115C1967.05 221.599 1967.15 222.55 1966.9 223.397C1966.65 224.276 1966.36 226.36 1966.22 227.396C1966.21 227.471 1966.22 227.549 1966.24 227.622C1966.26 227.695 1966.3 227.762 1966.35 227.82C1966.41 227.877 1966.47 227.923 1966.54 227.954C1966.62 227.985 1966.69 228.001 1966.77 228L1970.08 227.976C1970.16 227.976 1970.24 227.959 1970.31 227.926C1970.38 227.894 1970.45 227.846 1970.5 227.788C1970.55 227.729 1970.59 227.66 1970.61 227.586C1970.63 227.512 1970.64 227.435 1970.62 227.359C1970.42 226.07 1969.98 223.027 1970.11 220.951L1970.87 220.988C1973.52 222.678 1976.28 222.209 1977.09 220.907C1977.69 219.941 1977.39 218.225 1976.42 217.41C1975.52 216.658 1974.25 216.853 1974.23 216.597C1974.21 216.294 1976 216.322 1977.51 215.377C1978.97 214.461 1980.47 212.443 1979.86 210.903Z" fill="#003C03"/>
<path d="M608.164 199.034C607.295 168.902 591.676 158.902 568.137 159.741C556.7 117.543 511.362 111.283 486.952 143.092C472.999 133.209 427.488 125.012 430.233 183.823C411.02 182.625 403 199.49 403.018 208.411C402.104 248.735 436.175 238.301 448.986 235.408C457.472 241.796 470.905 241.547 481.656 239.9C489.371 252.814 490.223 266.732 486.238 280.631C486.073 281.189 486.039 281.778 486.141 282.351C486.242 282.924 486.475 283.466 486.822 283.933C487.168 284.4 487.618 284.78 488.137 285.042C488.655 285.304 489.227 285.442 489.807 285.444H534.894C535.44 285.444 535.978 285.325 536.472 285.093C536.966 284.862 537.403 284.525 537.753 284.105C538.103 283.686 538.356 283.195 538.495 282.666C538.635 282.138 538.657 281.585 538.559 281.047C535.719 265.474 538.192 250.736 546.69 237.819C552.814 235.911 558.555 233.078 563.576 229.133C571.343 242.94 584.901 246.962 602.226 244.56C626 239.765 637.847 211.35 608.164 199.034ZM510.362 253.263L500.358 236.471C508.263 239.119 516.519 240.565 524.852 240.76L516.843 253.353C516.496 253.905 516.014 254.358 515.442 254.669C514.87 254.98 514.228 255.139 513.577 255.13C512.927 255.121 512.289 254.945 511.726 254.618C511.163 254.291 510.693 253.825 510.362 253.263V253.263Z" fill="#003C03"/>
<path d="M1586.78 203.645C1585.67 200.793 1580.45 199.89 1577.43 201.433C1575.02 202.664 1574.02 205.445 1573.81 205.336C1573.6 205.22 1575.74 202.558 1575.68 199.481C1575.62 196.368 1573.3 192.638 1569.54 191.415C1565.18 190.001 1559.92 192.28 1557.77 197.009C1556.34 201.286 1556.34 201.462 1557.24 207.043C1553.64 208.051 1551.12 210.823 1552.29 215.49C1554.37 220.13 1561.57 222.159 1566.26 219.985C1566.39 220.759 1566.55 222.28 1566.16 223.635C1565.76 225.041 1565.29 228.377 1565.08 230.033C1565.06 230.154 1565.07 230.278 1565.11 230.395C1565.15 230.512 1565.21 230.62 1565.29 230.711C1565.37 230.803 1565.48 230.876 1565.59 230.926C1565.71 230.976 1565.83 231.001 1565.96 231L1571.22 230.962C1571.35 230.961 1571.47 230.934 1571.59 230.882C1571.7 230.83 1571.8 230.754 1571.89 230.66C1571.97 230.567 1572.03 230.457 1572.06 230.338C1572.1 230.22 1572.1 230.096 1572.08 229.974C1571.76 227.912 1571.07 223.044 1571.27 219.722L1572.48 219.781C1576.69 222.485 1581.09 221.735 1582.37 219.65C1583.32 218.106 1582.85 215.359 1581.3 214.056C1579.87 212.853 1577.85 213.165 1577.82 212.755C1577.8 212.27 1580.64 212.315 1583.04 210.804C1585.35 209.338 1587.74 206.108 1586.78 203.645Z" fill="#003C03"/>
<path d="M1662.74 194.174C1661.41 190.752 1655.14 189.668 1651.51 191.52C1648.62 192.997 1647.42 196.334 1647.18 196.203C1646.92 196.063 1649.49 192.87 1649.42 189.178C1649.35 185.441 1646.56 180.966 1642.04 179.499C1636.81 177.801 1630.51 180.536 1627.93 186.211C1626.21 191.344 1626.21 191.555 1627.29 198.251C1622.97 199.461 1619.94 202.788 1621.35 208.387C1623.84 213.957 1632.48 216.39 1638.11 213.781C1638.27 214.711 1638.46 216.536 1637.99 218.162C1637.51 219.849 1636.95 223.852 1636.69 225.84C1636.67 225.985 1636.69 226.133 1636.73 226.274C1636.77 226.414 1636.85 226.544 1636.95 226.654C1637.05 226.764 1637.17 226.851 1637.31 226.911C1637.45 226.971 1637.6 227.001 1637.75 227L1644.07 226.955C1644.22 226.953 1644.37 226.921 1644.5 226.858C1644.64 226.796 1644.76 226.705 1644.86 226.592C1644.96 226.48 1645.03 226.348 1645.07 226.206C1645.12 226.064 1645.12 225.915 1645.1 225.769C1644.71 223.294 1643.88 217.453 1644.12 213.466L1645.57 213.537C1650.63 216.782 1655.9 215.882 1657.44 213.381C1658.58 211.527 1658.02 208.231 1656.16 206.667C1654.44 205.224 1652.02 205.598 1651.99 205.105C1651.95 204.524 1655.37 204.578 1658.24 202.765C1661.03 201.006 1663.89 197.13 1662.74 194.174Z" fill="#40521F"/>
<path d="M1770.91 230C1770.79 230 1770.67 229.973 1770.56 229.919C1770.45 229.866 1770.35 229.788 1770.28 229.691C1770.2 229.595 1770.15 229.482 1770.12 229.362C1770.1 229.242 1770.1 229.117 1770.13 228.998C1770.55 227.248 1771.51 223.664 1770.19 221.958C1769.11 220.556 1767.56 221.512 1765.26 220.159C1762.57 218.573 1761.7 215.36 1761.34 214.034C1759.31 206.614 1766.79 192.515 1774.32 194.127C1778.59 195.041 1786.27 201.865 1784.82 213.746C1784.71 214.625 1783.07 219.592 1779.28 220.9C1777.23 221.607 1776.05 220.754 1775.07 221.826C1773.68 223.344 1774.9 227.154 1775.37 228.982C1775.4 229.101 1775.4 229.226 1775.38 229.347C1775.36 229.468 1775.3 229.582 1775.23 229.679C1775.15 229.777 1775.06 229.856 1774.95 229.911C1774.84 229.965 1774.72 229.993 1774.6 229.994L1770.91 230Z" fill="#5F4900"/>
<path d="M1872.61 224C1872.52 224 1872.44 223.982 1872.37 223.946C1872.3 223.911 1872.23 223.859 1872.18 223.794C1872.13 223.73 1872.1 223.655 1872.08 223.575C1872.07 223.494 1872.07 223.412 1872.09 223.332C1872.37 222.165 1873.01 219.776 1872.13 218.639C1871.41 217.704 1870.37 218.341 1868.84 217.439C1867.05 216.382 1866.46 214.24 1866.22 213.356C1864.87 208.409 1869.86 199.01 1874.88 200.085C1877.73 200.694 1882.85 205.244 1881.88 213.164C1881.81 213.75 1880.71 217.062 1878.19 217.933C1876.82 218.404 1876.03 217.836 1875.38 218.55C1874.45 219.563 1875.27 222.103 1875.58 223.321C1875.6 223.401 1875.6 223.484 1875.59 223.565C1875.57 223.645 1875.54 223.721 1875.49 223.786C1875.44 223.851 1875.37 223.904 1875.3 223.94C1875.23 223.977 1875.15 223.996 1875.07 223.996L1872.61 224Z" fill="#40521F"/>
<path d="M1400.68 193.651C1399.07 189.445 1391.45 188.113 1387.05 190.389C1383.54 192.204 1382.08 196.306 1381.78 196.145C1381.47 195.974 1384.6 192.049 1384.51 187.51C1384.42 182.917 1381.04 177.417 1375.55 175.613C1369.2 173.526 1361.54 176.888 1358.41 183.864C1356.33 190.172 1356.33 190.432 1357.63 198.663C1352.39 200.151 1348.71 204.239 1350.42 211.122C1353.45 217.967 1363.94 220.959 1370.78 217.752C1370.97 218.895 1371.2 221.138 1370.64 223.136C1370.04 225.211 1369.37 230.131 1369.06 232.574C1369.03 232.753 1369.05 232.935 1369.1 233.107C1369.16 233.28 1369.25 233.439 1369.37 233.574C1369.49 233.709 1369.64 233.817 1369.81 233.891C1369.97 233.964 1370.15 234.001 1370.34 234L1378.01 233.944C1378.19 233.943 1378.37 233.902 1378.54 233.825C1378.71 233.749 1378.86 233.637 1378.98 233.499C1379.1 233.361 1379.18 233.199 1379.23 233.024C1379.28 232.849 1379.29 232.666 1379.27 232.487C1378.79 229.445 1377.78 222.265 1378.07 217.364L1379.84 217.451C1385.98 221.44 1392.38 220.334 1394.25 217.259C1395.63 214.981 1394.95 210.93 1392.69 209.007C1390.6 207.233 1387.66 207.694 1387.63 207.088C1387.59 206.373 1391.73 206.44 1395.22 204.211C1398.6 202.049 1402.08 197.285 1400.68 193.651Z" fill="#003C03"/>
<path d="M1765.59 196.983C1764.89 195.583 1761.72 189.166 1755.24 187.492C1752.15 186.693 1748.04 186.905 1745.22 187.859C1744.61 188.076 1744 188.26 1743.38 188.409C1741.59 188.831 1738.28 191.141 1735.74 192.887C1733.94 194.136 1731.72 194.644 1729.55 194.303C1712.53 191.565 1706.9 202.803 1708.17 209.5C1711.68 222.792 1732.12 221.119 1733.2 220.847C1732.34 224.193 1731.19 234.141 1730.98 237.709C1730.97 237.875 1730.99 238.04 1731.05 238.196C1731.1 238.352 1731.19 238.494 1731.31 238.615C1731.42 238.736 1731.56 238.832 1731.71 238.898C1731.86 238.965 1732.02 238.999 1732.19 239H1740.1C1740.26 239 1740.43 238.966 1740.58 238.9C1740.74 238.834 1740.87 238.737 1740.99 238.615C1741.1 238.493 1741.19 238.35 1741.25 238.193C1741.3 238.036 1741.33 237.869 1741.32 237.702C1741.14 235.115 1740.56 229.298 1740.74 226.164C1740.88 223.779 1740.98 222.106 1741.05 220.933C1743.65 221.478 1751.29 220.542 1754.83 219.399C1755.26 219.26 1765.92 216.349 1766.84 206.882C1767.4 200.936 1766.38 198.553 1765.59 196.983Z" fill="#003C03"/>
<path d="M1905.24 201.375C1904.86 200.622 1903.14 197.166 1899.62 196.265C1897.95 195.835 1895.72 195.949 1894.19 196.463C1893.86 196.579 1893.53 196.678 1893.19 196.759C1892.22 196.986 1890.42 198.23 1889.05 199.17C1888.07 199.843 1886.87 200.116 1885.69 199.932C1876.46 198.458 1873.4 204.509 1874.09 208.115C1876 215.273 1887.08 214.372 1887.67 214.225C1887.2 216.027 1886.58 221.384 1886.46 223.305C1886.46 223.394 1886.47 223.483 1886.5 223.567C1886.53 223.651 1886.58 223.728 1886.64 223.793C1886.7 223.858 1886.78 223.91 1886.86 223.945C1886.94 223.981 1887.03 224 1887.12 224H1891.41C1891.5 224 1891.59 223.982 1891.67 223.946C1891.75 223.91 1891.83 223.858 1891.89 223.793C1891.95 223.727 1892 223.65 1892.03 223.565C1892.06 223.481 1892.08 223.391 1892.07 223.301C1891.98 221.908 1891.66 218.776 1891.76 217.088C1891.84 215.804 1891.89 214.903 1891.93 214.271C1893.33 214.565 1897.48 214.061 1899.4 213.446C1899.63 213.371 1905.41 211.803 1905.91 206.706C1906.22 203.504 1905.66 202.221 1905.24 201.375Z" fill="#003C03"/>
<path d="M1725.78 203.645C1724.67 200.793 1719.45 199.89 1716.43 201.433C1714.02 202.664 1713.02 205.445 1712.81 205.336C1712.6 205.22 1714.74 202.558 1714.68 199.481C1714.62 196.368 1712.3 192.638 1708.54 191.415C1704.18 190.001 1698.92 192.28 1696.77 197.009C1695.34 201.286 1695.34 201.462 1696.24 207.043C1692.64 208.051 1690.12 210.823 1691.29 215.49C1693.37 220.13 1700.57 222.159 1705.26 219.985C1705.39 220.759 1705.55 222.28 1705.16 223.635C1704.76 225.041 1704.29 228.377 1704.08 230.033C1704.06 230.154 1704.07 230.278 1704.11 230.395C1704.15 230.512 1704.21 230.62 1704.29 230.711C1704.37 230.803 1704.48 230.876 1704.59 230.926C1704.71 230.976 1704.83 231.001 1704.96 231L1710.22 230.962C1710.35 230.961 1710.47 230.934 1710.59 230.882C1710.7 230.83 1710.8 230.754 1710.89 230.66C1710.97 230.567 1711.03 230.457 1711.06 230.338C1711.1 230.22 1711.1 230.096 1711.08 229.974C1710.76 227.912 1710.07 223.044 1710.27 219.722L1711.48 219.781C1715.69 222.485 1720.09 221.735 1721.37 219.65C1722.32 218.106 1721.85 215.359 1720.3 214.056C1718.87 212.853 1716.85 213.165 1716.82 212.755C1716.8 212.27 1719.64 212.315 1722.04 210.804C1724.35 209.338 1726.74 206.108 1725.78 203.645Z" fill="#275243"/>
</g>
<defs>
<clipPath id="clip0_118_12311">
<rect width="2000" height="224" fill="white"/>
</clipPath>
</defs>
</svg>
